0
SECTION
2
HEADER
9
$ANGDIR
70
1
9
$AUNITS
70
0
9
$PROJECTNAME
1
air
9
$TDCREATE
40
2458853.73004433
9
$INSUNITS
70
4
0
ENDSEC
0
SECTION
2
ENTITIES
0
POLYLINE
66
1
8
outline
10
0.0
20
0.0
30
0.0
70
1
0
VERTEX
8
0
10
-8.89
20
-22.86
30
0
0
VERTEX
8
0
10
-8.8658375
20
-23.413440625
30
0
0
VERTEX
8
0
10
-8.793528125
20
-23.962665625
30
0
0
VERTEX
8
0
10
-8.673628125
20
-24.503503125
30
0
0
VERTEX
8
0
10
-8.507046875
20
-25.031828125
30
0
0
VERTEX
8
0
10
-8.295053125
20
-25.543628125
30
0
0
VERTEX
8
0
10
-8.039259375
20
-26.035
30
0
0
VERTEX
8
0
10
-7.7416156250000006
20
-26.502212500000002
30
0
0
VERTEX
8
0
10
-7.40438125
20
-26.941703125
30
0
0
VERTEX
8
0
10
-7.030128125
20
-27.35013125
30
0
0
VERTEX
8
0
10
-6.621700000000001
20
-27.724384375
30
0
0
VERTEX
8
0
10
-6.182209375
20
-28.06161875
30
0
0
VERTEX
8
0
10
-5.715
20
-28.3592625
30
0
0
VERTEX
8
0
10
-5.223625
20
-28.615056250000002
30
0
0
VERTEX
8
0
10
-4.711825
20
-28.82705
30
0
0
VERTEX
8
0
10
-4.1835
20
-28.99363125
30
0
0
VERTEX
8
0
10
-3.6426625
20
-29.11353125
30
0
0
VERTEX
8
0
10
-3.0934375000000003
20
-29.185840625
30
0
0
VERTEX
8
0
10
-2.54
20
-29.21
30
0
0
VERTEX
8
0
10
34.29
20
-29.21
30
0
0
VERTEX
8
0
10
34.8434375
20
-29.1858375
30
0
0
VERTEX
8
0
10
35.392665625
20
-29.113528125000002
30
0
0
VERTEX
8
0
10
35.9335
20
-28.993628125
30
0
0
VERTEX
8
0
10
36.461828125000004
20
-28.827046875
30
0
0
VERTEX
8
0
10
36.973625
20
-28.615053125000003
30
0
0
VERTEX
8
0
10
37.465
20
-28.3592625
30
0
0
VERTEX
8
0
10
37.932209375
20
-28.061615625
30
0
0
VERTEX
8
0
10
38.371700000000004
20
-27.72438125
30
0
0
VERTEX
8
0
10
38.780128125000005
20
-27.350128125
30
0
0
VERTEX
8
0
10
39.15438125
20
-26.9417
30
0
0
VERTEX
8
0
10
39.491615625
20
-26.502209375
30
0
0
VERTEX
8
0
10
39.7892625
20
-26.035
30
0
0
VERTEX
8
0
10
40.045053125
20
-25.543625000000002
30
0
0
VERTEX
8
0
10
40.257046875
20
-25.031828125
30
0
0
VERTEX
8
0
10
40.423628125
20
-24.503500000000003
30
0
0
VERTEX
8
0
10
40.543528125
20
-23.962665625
30
0
0
VERTEX
8
0
10
40.615837500000005
20
-23.4134375
30
0
0
VERTEX
8
0
10
40.64
20
-22.86
30
0
0
VERTEX
8
0
10
40.64
20
-21.59
30
0
0
VERTEX
8
0
10
119.38000000000001
20
170.18
30
0
0
VERTEX
8
0
10
119.351003125
20
170.844128125
30
0
0
VERTEX
8
0
10
119.264234375
20
171.50320000000002
30
0
0
VERTEX
8
0
10
119.12035625
20
172.15220000000002
30
0
0
VERTEX
8
0
10
118.92045625
20
172.78619375
30
0
0
VERTEX
8
0
10
118.666065625
20
173.40035
30
0
0
VERTEX
8
0
10
118.35911250000001
20
173.99
30
0
0
VERTEX
8
0
10
118.00193750000001
20
174.550653125
30
0
0
VERTEX
8
0
10
117.59725937500001
20
175.078040625
30
0
0
VERTEX
8
0
10
117.14815312500001
20
175.568153125
30
0
0
VERTEX
8
0
10
116.65804062500001
20
176.017259375
30
0
0
VERTEX
8
0
10
116.13065312500001
20
176.4219375
30
0
0
VERTEX
8
0
10
115.57000000000001
20
176.7791125
30
0
0
VERTEX
8
0
10
114.98035
20
177.086065625
30
0
0
VERTEX
8
0
10
114.36619375000001
20
177.34045625000002
30
0
0
VERTEX
8
0
10
113.7322
20
177.54035625
30
0
0
VERTEX
8
0
10
113.0832
20
177.68423437500002
30
0
0
VERTEX
8
0
10
112.42412812500001
20
177.77100312500002
30
0
0
VERTEX
8
0
10
111.76
20
177.8
30
0
0
VERTEX
8
0
10
76.2
20
177.8
30
0
0
VERTEX
8
0
10
75.6465625
20
177.7758375
30
0
0
VERTEX
8
0
10
75.097334375
20
177.70352812500002
30
0
0
VERTEX
8
0
10
74.5565
20
177.58362812500002
30
0
0
VERTEX
8
0
10
74.028171875
20
177.417046875
30
0
0
VERTEX
8
0
10
73.516375
20
177.205053125
30
0
0
VERTEX
8
0
10
73.025
20
176.9492625
30
0
0
VERTEX
8
0
10
72.55779062500001
20
176.651615625
30
0
0
VERTEX
8
0
10
72.1183
20
176.31438125
30
0
0
VERTEX
8
0
10
71.709871875
20
175.940128125
30
0
0
VERTEX
8
0
10
71.33561875000001
20
175.5317
30
0
0
VERTEX
8
0
10
70.998384375
20
175.092209375
30
0
0
VERTEX
8
0
10
70.7007375
20
174.625
30
0
0
VERTEX
8
0
10
70.444946875
20
174.133625
30
0
0
VERTEX
8
0
10
70.23295312500001
20
173.621828125
30
0
0
VERTEX
8
0
10
70.066371875
20
173.0935
30
0
0
VERTEX
8
0
10
69.946471875
20
172.552665625
30
0
0
VERTEX
8
0
10
69.8741625
20
172.00343750000002
30
0
0
VERTEX
8
0
10
69.85000000000001
20
171.45000000000002
30
0
0
VERTEX
8
0
10
69.85000000000001
20
170.18
30
0
0
VERTEX
8
0
10
-8.89
20
-21.59
30
0
0
VERTEX
8
0
10
-8.89
20
-22.86
30
0
0
SEQEND
0
POLYLINE
66
1
8
holes
10
0.0
20
0.0
30
0.0
70
1
0
VERTEX
8
0
10
3.4200000000000004
20
-19.114965625
30
0
0
VERTEX
8
0
10
3.4121562500000002
20
-19.2446625
30
0
0
VERTEX
8
0
10
3.3964937500000003
20
-19.373646875000002
30
0
0
VERTEX
8
0
10
3.373071875
20
-19.501450000000002
30
0
0
VERTEX
8
0
10
3.3419781250000002
20
-19.62760625
30
0
0
VERTEX
8
0
10
3.303321875
20
-19.75165625
30
0
0
VERTEX
8
0
10
3.2572468750000003
20
-19.87314375
30
0
0
VERTEX
8
0
10
3.2039218750000003
20
-19.99163125
30
0
0
VERTEX
8
0
10
3.143540625
20
-20.106678125000002
30
0
0
VERTEX
8
0
10
3.07631875
20
-20.217871875
30
0
0
VERTEX
8
0
10
3.0025093750000003
20
-20.32480625
30
0
0
VERTEX
8
0
10
2.9223781250000003
20
-20.427084375
30
0
0
VERTEX
8
0
10
2.83621875
20
-20.524340625
30
0
0
VERTEX
8
0
10
2.744340625
20
-20.61621875
30
0
0
VERTEX
8
0
10
2.647084375
20
-20.702378125000003
30
0
0
VERTEX
8
0
10
2.54480625
20
-20.782509375
30
0
0
VERTEX
8
0
10
2.437871875
20
-20.85631875
30
0
0
VERTEX
8
0
10
2.326678125
20
-20.923540625
30
0
0
VERTEX
8
0
10
2.21163125
20
-20.983921875
30
0
0
VERTEX
8
0
10
2.0931437500000003
20
-21.037246875
30
0
0
VERTEX
8
0
10
1.97165625
20
-21.083321875
30
0
0
VERTEX
8
0
10
1.8476062500000001
20
-21.121978125000002
30
0
0
VERTEX
8
0
10
1.7214500000000001
20
-21.153071875000002
30
0
0
VERTEX
8
0
10
1.5936468750000001
20
-21.176493750000002
30
0
0
VERTEX
8
0
10
1.4646625
20
-21.19215625
30
0
0
VERTEX
8
0
10
1.3349656250000002
20
-21.2
30
0
0
VERTEX
8
0
10
1.205034375
20
-21.2
30
0
0
VERTEX
8
0
10
1.0753375
20
-21.19215625
30
0
0
VERTEX
8
0
10
0.946353125
20
-21.176493750000002
30
0
0
VERTEX
8
0
10
0.81855
20
-21.153071875000002
30
0
0
VERTEX
8
0
10
0.69239375
20
-21.121978125000002
30
0
0
VERTEX
8
0
10
0.56834375
20
-21.083321875
30
0
0
VERTEX
8
0
10
0.44685625
20
-21.037246875
30
0
0
VERTEX
8
0
10
0.32836875000000004
20
-20.983921875
30
0
0
VERTEX
8
0
10
0.21332187500000002
20
-20.923540625
30
0
0
VERTEX
8
0
10
0.102128125
20
-20.85631875
30
0
0
VERTEX
8
0
10
-0.004806250000000001
20
-20.782509375
30
0
0
VERTEX
8
0
10
-0.10708437500000001
20
-20.702378125000003
30
0
0
VERTEX
8
0
10
-0.204340625
20
-20.61621875
30
0
0
VERTEX
8
0
10
-0.29621875000000003
20
-20.524340625
30
0
0
VERTEX
8
0
10
-0.382378125
20
-20.427084375
30
0
0
VERTEX
8
0
10
-0.462509375
20
-20.32480625
30
0
0
VERTEX
8
0
10
-0.5363187500000001
20
-20.217871875
30
0
0
VERTEX
8
0
10
-0.603540625
20
-20.106678125000002
30
0
0
VERTEX
8
0
10
-0.663921875
20
-19.99163125
30
0
0
VERTEX
8
0
10
-0.7172468750000001
20
-19.87314375
30
0
0
VERTEX
8
0
10
-0.763321875
20
-19.75165625
30
0
0
VERTEX
8
0
10
-0.801978125
20
-19.62760625
30
0
0
VERTEX
8
0
10
-0.833071875
20
-19.501450000000002
30
0
0
VERTEX
8
0
10
-0.85649375
20
-19.373646875000002
30
0
0
VERTEX
8
0
10
-0.8721562500000001
20
-19.2446625
30
0
0
VERTEX
8
0
10
-0.88
20
-19.114965625
30
0
0
VERTEX
8
0
10
-0.88
20
-18.985034375
30
0
0
VERTEX
8
0
10
-0.8721562500000001
20
-18.8553375
30
0
0
VERTEX
8
0
10
-0.85649375
20
-18.726353125
30
0
0
VERTEX
8
0
10
-0.833071875
20
-18.59855
30
0
0
VERTEX
8
0
10
-0.801978125
20
-18.472393750000002
30
0
0
VERTEX
8
0
10
-0.763321875
20
-18.34834375
30
0
0
VERTEX
8
0
10
-0.7172468750000001
20
-18.22685625
30
0
0
VERTEX
8
0
10
-0.663921875
20
-18.10836875
30
0
0
VERTEX
8
0
10
-0.603540625
20
-17.993321875
30
0
0
VERTEX
8
0
10
-0.5363187500000001
20
-17.882128125
30
0
0
VERTEX
8
0
10
-0.462509375
20
-17.77519375
30
0
0
VERTEX
8
0
10
-0.382378125
20
-17.672915625
30
0
0
VERTEX
8
0
10
-0.29621875000000003
20
-17.575659375
30
0
0
VERTEX
8
0
10
-0.204340625
20
-17.48378125
30
0
0
VERTEX
8
0
10
-0.10708437500000001
20
-17.397621875000002
30
0
0
VERTEX
8
0
10
-0.004806250000000001
20
-17.317490625
30
0
0
VERTEX
8
0
10
0.102128125
20
-17.24368125
30
0
0
VERTEX
8
0
10
0.21332187500000002
20
-17.176459375
30
0
0
VERTEX
8
0
10
0.32836875000000004
20
-17.116078125
30
0
0
VERTEX
8
0
10
0.44685625
20
-17.062753125
30
0
0
VERTEX
8
0
10
0.56834375
20
-17.016678125000002
30
0
0
VERTEX
8
0
10
0.69239375
20
-16.978021875
30
0
0
VERTEX
8
0
10
0.81855
20
-16.946928125
30
0
0
VERTEX
8
0
10
0.946353125
20
-16.92350625
30
0
0
VERTEX
8
0
10
1.0753375
20
-16.90784375
30
0
0
VERTEX
8
0
10
1.205034375
20
-16.900000000000002
30
0
0
VERTEX
8
0
10
1.3349656250000002
20
-16.900000000000002
30
0
0
VERTEX
8
0
10
1.4646625
20
-16.90784375
30
0
0
VERTEX
8
0
10
1.5936468750000001
20
-16.92350625
30
0
0
VERTEX
8
0
10
1.7214500000000001
20
-16.946928125
30
0
0
VERTEX
8
0
10
1.8476062500000001
20
-16.978021875
30
0
0
VERTEX
8
0
10
1.97165625
20
-17.016678125000002
30
0
0
VERTEX
8
0
10
2.0931437500000003
20
-17.062753125
30
0
0
VERTEX
8
0
10
2.21163125
20
-17.116078125
30
0
0
VERTEX
8
0
10
2.326678125
20
-17.176459375
30
0
0
VERTEX
8
0
10
2.437871875
20
-17.24368125
30
0
0
VERTEX
8
0
10
2.54480625
20
-17.317490625
30
0
0
VERTEX
8
0
10
2.647084375
20
-17.397621875000002
30
0
0
VERTEX
8
0
10
2.744340625
20
-17.48378125
30
0
0
VERTEX
8
0
10
2.83621875
20
-17.575659375
30
0
0
VERTEX
8
0
10
2.9223781250000003
20
-17.672915625
30
0
0
VERTEX
8
0
10
3.0025093750000003
20
-17.77519375
30
0
0
VERTEX
8
0
10
3.07631875
20
-17.882128125
30
0
0
VERTEX
8
0
10
3.143540625
20
-17.993321875
30
0
0
VERTEX
8
0
10
3.2039218750000003
20
-18.10836875
30
0
0
VERTEX
8
0
10
3.2572468750000003
20
-18.22685625
30
0
0
VERTEX
8
0
10
3.303321875
20
-18.34834375
30
0
0
VERTEX
8
0
10
3.3419781250000002
20
-18.472393750000002
30
0
0
VERTEX
8
0
10
3.373071875
20
-18.59855
30
0
0
VERTEX
8
0
10
3.3964937500000003
20
-18.726353125
30
0
0
VERTEX
8
0
10
3.4121562500000002
20
-18.8553375
30
0
0
VERTEX
8
0
10
3.4200000000000004
20
-18.985034375
30
0
0
VERTEX
8
0
10
3.4200000000000004
20
-19.114965625
30
0
0
SEQEND
0
POLYLINE
66
1
8
holes
10
0.0
20
0.0
30
0.0
70
1
0
VERTEX
8
0
10
77.08
20
161.225034375
30
0
0
VERTEX
8
0
10
77.07215625
20
161.0953375
30
0
0
VERTEX
8
0
10
77.05649375
20
160.966353125
30
0
0
VERTEX
8
0
10
77.033071875
20
160.83855
30
0
0
VERTEX
8
0
10
77.00197812500001
20
160.71239375000002
30
0
0
VERTEX
8
0
10
76.963321875
20
160.58834375
30
0
0
VERTEX
8
0
10
76.917246875
20
160.46685625
30
0
0
VERTEX
8
0
10
76.863921875
20
160.34836875000002
30
0
0
VERTEX
8
0
10
76.80354062500001
20
160.233321875
30
0
0
VERTEX
8
0
10
76.73631875000001
20
160.12212812500002
30
0
0
VERTEX
8
0
10
76.662509375
20
160.01519375
30
0
0
VERTEX
8
0
10
76.582378125
20
159.912915625
30
0
0
VERTEX
8
0
10
76.49621875
20
159.815659375
30
0
0
VERTEX
8
0
10
76.404340625
20
159.72378125
30
0
0
VERTEX
8
0
10
76.307084375
20
159.637621875
30
0
0
VERTEX
8
0
10
76.20480625
20
159.557490625
30
0
0
VERTEX
8
0
10
76.09787187500001
20
159.48368125000002
30
0
0
VERTEX
8
0
10
75.986678125
20
159.41645937500002
30
0
0
VERTEX
8
0
10
75.87163125000001
20
159.356078125
30
0
0
VERTEX
8
0
10
75.75314375
20
159.302753125
30
0
0
VERTEX
8
0
10
75.63165625
20
159.256678125
30
0
0
VERTEX
8
0
10
75.50760625000001
20
159.218021875
30
0
0
VERTEX
8
0
10
75.38145
20
159.186928125
30
0
0
VERTEX
8
0
10
75.253646875
20
159.16350625
30
0
0
VERTEX
8
0
10
75.1246625
20
159.14784375000002
30
0
0
VERTEX
8
0
10
74.994965625
20
159.14000000000001
30
0
0
VERTEX
8
0
10
74.86503437500001
20
159.14000000000001
30
0
0
VERTEX
8
0
10
74.7353375
20
159.14784375000002
30
0
0
VERTEX
8
0
10
74.606353125
20
159.16350625
30
0
0
VERTEX
8
0
10
74.47855
20
159.186928125
30
0
0
VERTEX
8
0
10
74.35239375
20
159.218021875
30
0
0
VERTEX
8
0
10
74.22834375000001
20
159.256678125
30
0
0
VERTEX
8
0
10
74.10685625
20
159.302753125
30
0
0
VERTEX
8
0
10
73.98836875
20
159.356078125
30
0
0
VERTEX
8
0
10
73.873321875
20
159.41645937500002
30
0
0
VERTEX
8
0
10
73.762128125
20
159.48368125000002
30
0
0
VERTEX
8
0
10
73.65519375000001
20
159.557490625
30
0
0
VERTEX
8
0
10
73.552915625
20
159.637621875
30
0
0
VERTEX
8
0
10
73.45565937500001
20
159.72378125
30
0
0
VERTEX
8
0
10
73.36378125
20
159.815659375
30
0
0
VERTEX
8
0
10
73.27762187500001
20
159.912915625
30
0
0
VERTEX
8
0
10
73.197490625
20
160.01519375
30
0
0
VERTEX
8
0
10
73.12368125
20
160.12212812500002
30
0
0
VERTEX
8
0
10
73.056459375
20
160.233321875
30
0
0
VERTEX
8
0
10
72.996078125
20
160.34836875000002
30
0
0
VERTEX
8
0
10
72.94275312500001
20
160.46685625
30
0
0
VERTEX
8
0
10
72.89667812500001
20
160.58834375
30
0
0
VERTEX
8
0
10
72.858021875
20
160.71239375000002
30
0
0
VERTEX
8
0
10
72.82692812500001
20
160.83855
30
0
0
VERTEX
8
0
10
72.80350625
20
160.966353125
30
0
0
VERTEX
8
0
10
72.78784375000001
20
161.0953375
30
0
0
VERTEX
8
0
10
72.78
20
161.225034375
30
0
0
VERTEX
8
0
10
72.78
20
161.354965625
30
0
0
VERTEX
8
0
10
72.78784375000001
20
161.4846625
30
0
0
VERTEX
8
0
10
72.80350625
20
161.613646875
30
0
0
VERTEX
8
0
10
72.82692812500001
20
161.74145000000001
30
0
0
VERTEX
8
0
10
72.858021875
20
161.86760625
30
0
0
VERTEX
8
0
10
72.89667812500001
20
161.99165625
30
0
0
VERTEX
8
0
10
72.94275312500001
20
162.11314375
30
0
0
VERTEX
8
0
10
72.996078125
20
162.23163125000002
30
0
0
VERTEX
8
0
10
73.056459375
20
162.346678125
30
0
0
VERTEX
8
0
10
73.12368125
20
162.457871875
30
0
0
VERTEX
8
0
10
73.197490625
20
162.56480625
30
0
0
VERTEX
8
0
10
73.27762187500001
20
162.667084375
30
0
0
VERTEX
8
0
10
73.36378125
20
162.76434062500002
30
0
0
VERTEX
8
0
10
73.45565937500001
20
162.85621875
30
0
0
VERTEX
8
0
10
73.552915625
20
162.942378125
30
0
0
VERTEX
8
0
10
73.65519375000001
20
163.022509375
30
0
0
VERTEX
8
0
10
73.762128125
20
163.09631875
30
0
0
VERTEX
8
0
10
73.873321875
20
163.163540625
30
0
0
VERTEX
8
0
10
73.98836875
20
163.223921875
30
0
0
VERTEX
8
0
10
74.10685625
20
163.277246875
30
0
0
VERTEX
8
0
10
74.22834375000001
20
163.323321875
30
0
0
VERTEX
8
0
10
74.35239375
20
163.361978125
30
0
0
VERTEX
8
0
10
74.47855
20
163.393071875
30
0
0
VERTEX
8
0
10
74.606353125
20
163.41649375
30
0
0
VERTEX
8
0
10
74.7353375
20
163.43215625000002
30
0
0
VERTEX
8
0
10
74.86503437500001
20
163.44
30
0
0
VERTEX
8
0
10
74.994965625
20
163.44
30
0
0
VERTEX
8
0
10
75.1246625
20
163.43215625000002
30
0
0
VERTEX
8
0
10
75.253646875
20
163.41649375
30
0
0
VERTEX
8
0
10
75.38145
20
163.393071875
30
0
0
VERTEX
8
0
10
75.50760625000001
20
163.361978125
30
0
0
VERTEX
8
0
10
75.63165625
20
163.323321875
30
0
0
VERTEX
8
0
10
75.75314375
20
163.277246875
30
0
0
VERTEX
8
0
10
75.87163125000001
20
163.223921875
30
0
0
VERTEX
8
0
10
75.986678125
20
163.163540625
30
0
0
VERTEX
8
0
10
76.09787187500001
20
163.09631875
30
0
0
VERTEX
8
0
10
76.20480625
20
163.022509375
30
0
0
VERTEX
8
0
10
76.307084375
20
162.942378125
30
0
0
VERTEX
8
0
10
76.404340625
20
162.85621875
30
0
0
VERTEX
8
0
10
76.49621875
20
162.76434062500002
30
0
0
VERTEX
8
0
10
76.582378125
20
162.667084375
30
0
0
VERTEX
8
0
10
76.662509375
20
162.56480625
30
0
0
VERTEX
8
0
10
76.73631875000001
20
162.457871875
30
0
0
VERTEX
8
0
10
76.80354062500001
20
162.346678125
30
0
0
VERTEX
8
0
10
76.863921875
20
162.23163125000002
30
0
0
VERTEX
8
0
10
76.917246875
20
162.11314375
30
0
0
VERTEX
8
0
10
76.963321875
20
161.99165625
30
0
0
VERTEX
8
0
10
77.00197812500001
20
161.86760625
30
0
0
VERTEX
8
0
10
77.033071875
20
161.74145000000001
30
0
0
VERTEX
8
0
10
77.05649375
20
161.613646875
30
0
0
VERTEX
8
0
10
77.07215625
20
161.4846625
30
0
0
VERTEX
8
0
10
77.08
20
161.354965625
30
0
0
VERTEX
8
0
10
77.08
20
161.225034375
30
0
0
SEQEND
0
POLYLINE
66
1
8
16_copper
10
0.0
20
0.0
30
0.0
70
1
0
VERTEX
8
0
10
107.4269
20
172.38595
30
0
0
VERTEX
8
0
10
105.76230000000001
20
172.38595
30
0
0
VERTEX
8
0
10
105.76230000000001
20
171.78405
30
0
0
VERTEX
8
0
10
107.4269
20
171.78405
30
0
0
SEQEND
0
POLYLINE
66
1
8
16_copper
10
0.0
20
0.0
30
0.0
70
1
0
VERTEX
8
0
10
107.4269
20
171.11595
30
0
0
VERTEX
8
0
10
105.76230000000001
20
171.11595
30
0
0
VERTEX
8
0
10
105.76230000000001
20
170.51405
30
0
0
VERTEX
8
0
10
107.4269
20
170.51405
30
0
0
SEQEND
0
POLYLINE
66
1
8
16_copper
10
0.0
20
0.0
30
0.0
70
1
0
VERTEX
8
0
10
107.4269
20
169.84595000000002
30
0
0
VERTEX
8
0
10
105.76230000000001
20
169.84595000000002
30
0
0
VERTEX
8
0
10
105.76230000000001
20
169.24405000000002
30
0
0
VERTEX
8
0
10
107.4269
20
169.24405000000002
30
0
0
SEQEND
0
POLYLINE
66
1
8
16_copper
10
0.0
20
0.0
30
0.0
70
1
0
VERTEX
8
0
10
112.6777
20
168.57595
30
0
0
VERTEX
8
0
10
111.01310000000001
20
168.57595
30
0
0
VERTEX
8
0
10
111.01310000000001
20
167.97405
30
0
0
VERTEX
8
0
10
112.6777
20
167.97405
30
0
0
SEQEND
0
POLYLINE
66
1
8
16_copper
10
0.0
20
0.0
30
0.0
70
1
0
VERTEX
8
0
10
107.4269
20
168.57595
30
0
0
VERTEX
8
0
10
105.76230000000001
20
168.57595
30
0
0
VERTEX
8
0
10
105.76230000000001
20
167.97405
30
0
0
VERTEX
8
0
10
107.4269
20
167.97405
30
0
0
SEQEND
0
POLYLINE
66
1
8
16_copper
10
0.0
20
0.0
30
0.0
70
1
0
VERTEX
8
0
10
93.4569
20
138.09595000000002
30
0
0
VERTEX
8
0
10
91.7923
20
138.09595000000002
30
0
0
VERTEX
8
0
10
91.7923
20
137.49405000000002
30
0
0
VERTEX
8
0
10
93.4569
20
137.49405000000002
30
0
0
SEQEND
0
POLYLINE
66
1
8
16_copper
10
0.0
20
0.0
30
0.0
70
1
0
VERTEX
8
0
10
93.4569
20
136.82595
30
0
0
VERTEX
8
0
10
91.7923
20
136.82595
30
0
0
VERTEX
8
0
10
91.7923
20
136.22405
30
0
0
VERTEX
8
0
10
93.4569
20
136.22405
30
0
0
SEQEND
0
POLYLINE
66
1
8
16_copper
10
0.0
20
0.0
30
0.0
70
1
0
VERTEX
8
0
10
93.4569
20
135.55595
30
0
0
VERTEX
8
0
10
91.7923
20
135.55595
30
0
0
VERTEX
8
0
10
91.7923
20
134.95405
30
0
0
VERTEX
8
0
10
93.4569
20
134.95405
30
0
0
SEQEND
0
POLYLINE
66
1
8
16_copper
10
0.0
20
0.0
30
0.0
70
1
0
VERTEX
8
0
10
98.7077
20
134.28595
30
0
0
VERTEX
8
0
10
97.04310000000001
20
134.28595
30
0
0
VERTEX
8
0
10
97.04310000000001
20
133.68405
30
0
0
VERTEX
8
0
10
98.7077
20
133.68405
30
0
0
SEQEND
0
POLYLINE
66
1
8
16_copper
10
0.0
20
0.0
30
0.0
70
1
0
VERTEX
8
0
10
93.4569
20
134.28595
30
0
0
VERTEX
8
0
10
91.7923
20
134.28595
30
0
0
VERTEX
8
0
10
91.7923
20
133.68405
30
0
0
VERTEX
8
0
10
93.4569
20
133.68405
30
0
0
SEQEND
0
POLYLINE
66
1
8
16_copper
10
0.0
20
0.0
30
0.0
70
1
0
VERTEX
8
0
10
79.4869
20
103.80595000000001
30
0
0
VERTEX
8
0
10
77.8223
20
103.80595000000001
30
0
0
VERTEX
8
0
10
77.8223
20
103.20405000000001
30
0
0
VERTEX
8
0
10
79.4869
20
103.20405000000001
30
0
0
SEQEND
0
POLYLINE
66
1
8
16_copper
10
0.0
20
0.0
30
0.0
70
1
0
VERTEX
8
0
10
79.4869
20
102.53595
30
0
0
VERTEX
8
0
10
77.8223
20
102.53595
30
0
0
VERTEX
8
0
10
77.8223
20
101.93405
30
0
0
VERTEX
8
0
10
79.4869
20
101.93405
30
0
0
SEQEND
0
POLYLINE
66
1
8
16_copper
10
0.0
20
0.0
30
0.0
70
1
0
VERTEX
8
0
10
79.4869
20
101.26595
30
0
0
VERTEX
8
0
10
77.8223
20
101.26595
30
0
0
VERTEX
8
0
10
77.8223
20
100.66405
30
0
0
VERTEX
8
0
10
79.4869
20
100.66405
30
0
0
SEQEND
0
POLYLINE
66
1
8
16_copper
10
0.0
20
0.0
30
0.0
70
1
0
VERTEX
8
0
10
84.7377
20
99.99595000000001
30
0
0
VERTEX
8
0
10
83.07310000000001
20
99.99595000000001
30
0
0
VERTEX
8
0
10
83.07310000000001
20
99.39405000000001
30
0
0
VERTEX
8
0
10
84.7377
20
99.39405000000001
30
0
0
SEQEND
0
POLYLINE
66
1
8
16_copper
10
0.0
20
0.0
30
0.0
70
1
0
VERTEX
8
0
10
79.4869
20
99.99595000000001
30
0
0
VERTEX
8
0
10
77.8223
20
99.99595000000001
30
0
0
VERTEX
8
0
10
77.8223
20
99.39405000000001
30
0
0
VERTEX
8
0
10
79.4869
20
99.39405000000001
30
0
0
SEQEND
0
POLYLINE
66
1
8
16_copper
10
0.0
20
0.0
30
0.0
70
1
0
VERTEX
8
0
10
65.5169
20
69.51595
30
0
0
VERTEX
8
0
10
63.8523
20
69.51595
30
0
0
VERTEX
8
0
10
63.8523
20
68.91405
30
0
0
VERTEX
8
0
10
65.5169
20
68.91405
30
0
0
SEQEND
0
POLYLINE
66
1
8
16_copper
10
0.0
20
0.0
30
0.0
70
1
0
VERTEX
8
0
10
65.5169
20
68.24595000000001
30
0
0
VERTEX
8
0
10
63.8523
20
68.24595000000001
30
0
0
VERTEX
8
0
10
63.8523
20
67.64405000000001
30
0
0
VERTEX
8
0
10
65.5169
20
67.64405000000001
30
0
0
SEQEND
0
POLYLINE
66
1
8
16_copper
10
0.0
20
0.0
30
0.0
70
1
0
VERTEX
8
0
10
65.5169
20
66.97595
30
0
0
VERTEX
8
0
10
63.8523
20
66.97595
30
0
0
VERTEX
8
0
10
63.8523
20
66.37405
30
0
0
VERTEX
8
0
10
65.5169
20
66.37405
30
0
0
SEQEND
0
POLYLINE
66
1
8
16_copper
10
0.0
20
0.0
30
0.0
70
1
0
VERTEX
8
0
10
70.7677
20
65.70595
30
0
0
VERTEX
8
0
10
69.1031
20
65.70595
30
0
0
VERTEX
8
0
10
69.1031
20
65.10405
30
0
0
VERTEX
8
0
10
70.7677
20
65.10405
30
0
0
SEQEND
0
POLYLINE
66
1
8
16_copper
10
0.0
20
0.0
30
0.0
70
1
0
VERTEX
8
0
10
65.5169
20
65.70595
30
0
0
VERTEX
8
0
10
63.8523
20
65.70595
30
0
0
VERTEX
8
0
10
63.8523
20
65.10405
30
0
0
VERTEX
8
0
10
65.5169
20
65.10405
30
0
0
SEQEND
0
POLYLINE
66
1
8
16_copper
10
0.0
20
0.0
30
0.0
70
1
0
VERTEX
8
0
10
50.276900000000005
20
35.225950000000005
30
0
0
VERTEX
8
0
10
48.612300000000005
20
35.225950000000005
30
0
0
VERTEX
8
0
10
48.612300000000005
20
34.624050000000004
30
0
0
VERTEX
8
0
10
50.276900000000005
20
34.624050000000004
30
0
0
SEQEND
0
POLYLINE
66
1
8
16_copper
10
0.0
20
0.0
30
0.0
70
1
0
VERTEX
8
0
10
50.276900000000005
20
33.95595
30
0
0
VERTEX
8
0
10
48.612300000000005
20
33.95595
30
0
0
VERTEX
8
0
10
48.612300000000005
20
33.35405
30
0
0
VERTEX
8
0
10
50.276900000000005
20
33.35405
30
0
0
SEQEND
0
POLYLINE
66
1
8
16_copper
10
0.0
20
0.0
30
0.0
70
1
0
VERTEX
8
0
10
50.276900000000005
20
32.68595
30
0
0
VERTEX
8
0
10
48.612300000000005
20
32.68595
30
0
0
VERTEX
8
0
10
48.612300000000005
20
32.084050000000005
30
0
0
VERTEX
8
0
10
50.276900000000005
20
32.084050000000005
30
0
0
SEQEND
0
POLYLINE
66
1
8
16_copper
10
0.0
20
0.0
30
0.0
70
1
0
VERTEX
8
0
10
55.5277
20
31.415950000000002
30
0
0
VERTEX
8
0
10
53.8631
20
31.415950000000002
30
0
0
VERTEX
8
0
10
53.8631
20
30.81405
30
0
0
VERTEX
8
0
10
55.5277
20
30.81405
30
0
0
SEQEND
0
POLYLINE
66
1
8
16_copper
10
0.0
20
0.0
30
0.0
70
1
0
VERTEX
8
0
10
50.276900000000005
20
31.415950000000002
30
0
0
VERTEX
8
0
10
48.612300000000005
20
31.415950000000002
30
0
0
VERTEX
8
0
10
48.612300000000005
20
30.81405
30
0
0
VERTEX
8
0
10
50.276900000000005
20
30.81405
30
0
0
SEQEND
0
POLYLINE
66
1
8
16_copper
10
0.0
20
0.0
30
0.0
70
1
0
VERTEX
8
0
10
36.3069
20
0.9359500000000001
30
0
0
VERTEX
8
0
10
34.6423
20
0.9359500000000001
30
0
0
VERTEX
8
0
10
34.6423
20
0.33405
30
0
0
VERTEX
8
0
10
36.3069
20
0.33405
30
0
0
SEQEND
0
POLYLINE
66
1
8
16_copper
10
0.0
20
0.0
30
0.0
70
1
0
VERTEX
8
0
10
36.3069
20
-0.33405
30
0
0
VERTEX
8
0
10
34.6423
20
-0.33405
30
0
0
VERTEX
8
0
10
34.6423
20
-0.9359500000000001
30
0
0
VERTEX
8
0
10
36.3069
20
-0.9359500000000001
30
0
0
SEQEND
0
POLYLINE
66
1
8
16_copper
10
0.0
20
0.0
30
0.0
70
1
0
VERTEX
8
0
10
36.3069
20
-1.60405
30
0
0
VERTEX
8
0
10
34.6423
20
-1.60405
30
0
0
VERTEX
8
0
10
34.6423
20
-2.20595
30
0
0
VERTEX
8
0
10
36.3069
20
-2.20595
30
0
0
SEQEND
0
POLYLINE
66
1
8
16_copper
10
0.0
20
0.0
30
0.0
70
1
0
VERTEX
8
0
10
41.557700000000004
20
-2.87405
30
0
0
VERTEX
8
0
10
39.893100000000004
20
-2.87405
30
0
0
VERTEX
8
0
10
39.893100000000004
20
-3.47595
30
0
0
VERTEX
8
0
10
41.557700000000004
20
-3.47595
30
0
0
SEQEND
0
POLYLINE
66
1
8
16_copper
10
0.0
20
0.0
30
0.0
70
1
0
VERTEX
8
0
10
36.3069
20
-2.87405
30
0
0
VERTEX
8
0
10
34.6423
20
-2.87405
30
0
0
VERTEX
8
0
10
34.6423
20
-3.47595
30
0
0
VERTEX
8
0
10
36.3069
20
-3.47595
30
0
0
SEQEND
0
POLYLINE
66
1
8
1_copper
10
0.0
20
0.0
30
0.0
70
1
0
VERTEX
8
0
10
54.897368750000005
20
22.57263125
30
0
42
0.19891236737965798
0
VERTEX
8
0
10
55.016400000000004
20
22.86
30
0
0
VERTEX
8
0
10
55.016400000000004
20
41.741662500000004
30
0
0
VERTEX
8
0
10
70.13736875000001
20
56.86263125
30
0
42
0.19891236737965798
0
VERTEX
8
0
10
70.2564
20
57.150000000000006
30
0
0
VERTEX
8
0
10
70.2564
20
77.3016625
30
0
0
VERTEX
8
0
10
84.10736875
20
91.15263125
30
0
42
0.19891236737965798
0
VERTEX
8
0
10
84.2264
20
91.44
30
0
0
VERTEX
8
0
10
84.2264
20
110.3216625
30
0
0
VERTEX
8
0
10
98.07736875
20
124.17263125000001
30
0
42
0.19891236737965798
0
VERTEX
8
0
10
98.19640000000001
20
124.46000000000001
30
0
0
VERTEX
8
0
10
98.19640000000001
20
144.6116625
30
0
0
VERTEX
8
0
10
112.04736875
20
158.46263125000002
30
0
42
0.19891236737965798
0
VERTEX
8
0
10
112.16640000000001
20
158.75
30
0
0
VERTEX
8
0
10
112.16640000000001
20
173.99
30
0
42
0.9999999999999999
0
VERTEX
8
0
10
111.3536
20
173.99
30
0
0
VERTEX
8
0
10
111.3536
20
166.355340625
30
0
0
VERTEX
8
0
10
102.47
20
166.355340625
30
0
0
VERTEX
8
0
10
102.47
20
167.19
30
0
0
VERTEX
8
0
10
101.07000000000001
20
167.19
30
0
0
VERTEX
8
0
10
101.07000000000001
20
166.19
30
0
0
VERTEX
8
0
10
101.98263125000001
20
166.19
30
0
0
VERTEX
8
0
10
102.164175
20
166.00845625
30
0
42
0.19891236737965798
0
VERTEX
8
0
10
102.307859375
20
165.948940625
30
0
0
VERTEX
8
0
10
111.3536
20
165.948940625
30
0
0
VERTEX
8
0
10
111.3536
20
158.9183375
30
0
0
VERTEX
8
0
10
97.50263125000001
20
145.06736875
30
0
42
0.19891236737965798
0
VERTEX
8
0
10
97.3836
20
144.78
30
0
0
VERTEX
8
0
10
97.3836
20
132.124225
30
0
0
VERTEX
8
0
10
88.5
20
132.124225
30
0
0
VERTEX
8
0
10
88.5
20
132.9
30
0
0
VERTEX
8
0
10
87.10000000000001
20
132.9
30
0
0
VERTEX
8
0
10
87.10000000000001
20
131.9
30
0
0
VERTEX
8
0
10
88.01263125
20
131.9
30
0
0
VERTEX
8
0
10
88.13529062500001
20
131.777340625
30
0
42
0.19891236737965798
0
VERTEX
8
0
10
88.278975
20
131.717825
30
0
0
VERTEX
8
0
10
97.3836
20
131.717825
30
0
0
VERTEX
8
0
10
97.3836
20
124.6283375
30
0
0
VERTEX
8
0
10
83.53263125000001
20
110.77736875000001
30
0
42
0.19891236737965798
0
VERTEX
8
0
10
83.4136
20
110.49000000000001
30
0
0
VERTEX
8
0
10
83.4136
20
97.8931125
30
0
0
VERTEX
8
0
10
74.53
20
97.8931125
30
0
0
VERTEX
8
0
10
74.53
20
98.61
30
0
0
VERTEX
8
0
10
73.13000000000001
20
98.61
30
0
0
VERTEX
8
0
10
73.13000000000001
20
97.61
30
0
0
VERTEX
8
0
10
74.04263125
20
97.61
30
0
42
0.3101888556852613
0
VERTEX
8
0
10
74.2500875
20
97.48671250000001
30
0
0
VERTEX
8
0
10
83.4136
20
97.48671250000001
30
0
0
VERTEX
8
0
10
83.4136
20
91.6083375
30
0
0
VERTEX
8
0
10
69.56263125000001
20
77.75736875
30
0
42
0.19891236737965798
0
VERTEX
8
0
10
69.4436
20
77.47
30
0
0
VERTEX
8
0
10
69.4436
20
63.661996875
30
0
0
VERTEX
8
0
10
60.56
20
63.661996875
30
0
0
VERTEX
8
0
10
60.56
20
64.32000000000001
30
0
0
VERTEX
8
0
10
59.160000000000004
20
64.32000000000001
30
0
0
VERTEX
8
0
10
59.160000000000004
20
63.32
30
0
0
VERTEX
8
0
10
60.07263125
20
63.32
30
0
42
0.20776448912157883
0
VERTEX
8
0
10
60.221203125
20
63.255596875
30
0
0
VERTEX
8
0
10
69.4436
20
63.255596875
30
0
0
VERTEX
8
0
10
69.4436
20
57.318337500000005
30
0
0
VERTEX
8
0
10
54.32263125
20
42.19736875
30
0
42
0.19891236737965798
0
VERTEX
8
0
10
54.2036
20
41.910000000000004
30
0
0
VERTEX
8
0
10
54.2036
20
29.4132
30
0
0
VERTEX
8
0
10
45.32
20
29.4132
30
0
0
VERTEX
8
0
10
45.32
20
30.03
30
0
0
VERTEX
8
0
10
43.92
20
30.03
30
0
0
VERTEX
8
0
10
43.92
20
29.03
30
0
0
VERTEX
8
0
10
44.846721875
20
29.03
30
0
42
0.12010016660280408
0
VERTEX
8
0
10
44.940000000000005
20
29.006800000000002
30
0
0
VERTEX
8
0
10
54.2036
20
29.006800000000002
30
0
0
VERTEX
8
0
10
54.2036
20
23.028337500000003
30
0
0
VERTEX
8
0
10
40.35263125
20
9.177368750000001
30
0
42
0.19891236737965798
0
VERTEX
8
0
10
40.2336
20
8.89
30
0
0
VERTEX
8
0
10
40.2336
20
-4.8768
30
0
0
VERTEX
8
0
10
31.35
20
-4.8768
30
0
0
VERTEX
8
0
10
31.35
20
-4.26
30
0
0
VERTEX
8
0
10
29.950000000000003
20
-4.26
30
0
0
VERTEX
8
0
10
29.950000000000003
20
-5.260000000000001
30
0
0
VERTEX
8
0
10
30.876721875
20
-5.260000000000001
30
0
42
0.12010016660280408
0
VERTEX
8
0
10
30.970000000000002
20
-5.2832
30
0
0
VERTEX
8
0
10
40.2336
20
-5.2832
30
0
0
VERTEX
8
0
10
40.2336
20
-11.2616625
30
0
0
VERTEX
8
0
10
35.27263125
20
-16.22263125
30
0
42
0.19891236737965798
0
VERTEX
8
0
10
35.153600000000004
20
-16.51
30
0
0
VERTEX
8
0
10
35.153600000000004
20
-23.961662500000003
30
0
0
VERTEX
8
0
10
34.1216625
20
-24.9936
30
0
0
VERTEX
8
0
10
16.6783375
20
-24.9936
30
0
0
VERTEX
8
0
10
15.74
20
-24.0552625
30
0
0
VERTEX
8
0
10
15.74
20
-20.55
30
0
0
VERTEX
8
0
10
15.6464
20
-20.55
30
0
0
VERTEX
8
0
10
15.6464
20
-17.55
30
0
0
VERTEX
8
0
10
15.74
20
-17.55
30
0
0
VERTEX
8
0
10
15.74
20
-13.8
30
0
0
VERTEX
8
0
10
14.74
20
-13.8
30
0
0
VERTEX
8
0
10
14.74
20
-17.55
30
0
0
VERTEX
8
0
10
14.8336
20
-17.55
30
0
0
VERTEX
8
0
10
14.8336
20
-20.55
30
0
0
VERTEX
8
0
10
14.74
20
-20.55
30
0
0
VERTEX
8
0
10
14.74
20
-24.3
30
0
0
VERTEX
8
0
10
14.871725000000001
20
-24.3
30
0
42
0.08846220848069591
0
VERTEX
8
0
10
14.952631250000001
20
-24.41736875
30
0
0
VERTEX
8
0
10
16.22263125
20
-25.68736875
30
0
42
0.19891236737965798
0
VERTEX
8
0
10
16.51
20
-25.8064
30
0
0
VERTEX
8
0
10
34.29
20
-25.8064
30
0
42
0.19891236737965798
0
VERTEX
8
0
10
34.577368750000005
20
-25.68736875
30
0
0
VERTEX
8
0
10
35.84736875
20
-24.41736875
30
0
42
0.19891236737965798
0
VERTEX
8
0
10
35.9664
20
-24.130000000000003
30
0
0
VERTEX
8
0
10
35.9664
20
-16.6783375
30
0
0
VERTEX
8
0
10
40.92736875
20
-11.71736875
30
0
42
0.19891236737965798
0
VERTEX
8
0
10
41.0464
20
-11.43
30
0
0
VERTEX
8
0
10
41.0464
20
8.7216625
30
0
0
SEQEND
0
POLYLINE
66
1
8
16_copper
10
0.0
20
0.0
30
0.0
70
1
0
VERTEX
8
0
10
113.16589375000001
20
174.140215625
30
0
42
0.18594531331417416
0
VERTEX
8
0
10
113.03
20
174.19320000000002
30
0
0
VERTEX
8
0
10
112.079390625
20
174.19320000000002
30
0
42
0.9471819677841321
0
VERTEX
8
0
10
111.42007500000001
20
173.82236875
30
0
0
VERTEX
8
0
10
111.4448625
20
173.77943125000002
30
0
42
0.5417412793133635
0
VERTEX
8
0
10
112.079390625
20
173.7868
30
0
0
VERTEX
8
0
10
112.94583125000001
20
173.7868
30
0
0
VERTEX
8
0
10
113.17443125000001
20
173.5582
30
0
42
0.27356440022137707
0
VERTEX
8
0
10
112.971715625
20
173.498684375
30
0
0
VERTEX
8
0
10
111.85898125
20
172.38595
30
0
0
VERTEX
8
0
10
111.01310000000001
20
172.38595
30
0
0
VERTEX
8
0
10
111.01310000000001
20
171.78405
30
0
0
VERTEX
8
0
10
112.6777
20
171.78405
30
0
0
VERTEX
8
0
10
112.6777
20
172.38595
30
0
0
VERTEX
8
0
10
112.43371875000001
20
172.38595
30
0
0
VERTEX
8
0
10
113.19956875000001
20
173.1518
30
0
0
VERTEX
8
0
10
113.58083125
20
173.1518
30
0
0
VERTEX
8
0
10
113.63263125
20
173.1
30
0
0
VERTEX
8
0
10
113.5
20
173.1
30
0
0
VERTEX
8
0
10
113.5
20
171.8
30
0
0
VERTEX
8
0
10
115.10000000000001
20
171.8
30
0
0
VERTEX
8
0
10
115.10000000000001
20
173.1
30
0
0
VERTEX
8
0
10
114.20736875
20
173.1
30
0
0
VERTEX
8
0
10
113.17368437500001
20
174.133684375
30
0
0
SEQEND
0
POLYLINE
66
1
8
16_copper
10
0.0
20
0.0
30
0.0
70
1
0
VERTEX
8
0
10
99.19589375000001
20
139.850215625
30
0
42
0.18594531331417416
0
VERTEX
8
0
10
99.06
20
139.9032
30
0
0
VERTEX
8
0
10
98.109390625
20
139.9032
30
0
42
0.9471819677841321
0
VERTEX
8
0
10
97.450075
20
139.53236875000002
30
0
0
VERTEX
8
0
10
97.4748625
20
139.48943125
30
0
42
0.5417412793133635
0
VERTEX
8
0
10
98.109390625
20
139.4968
30
0
0
VERTEX
8
0
10
98.97583125
20
139.4968
30
0
0
VERTEX
8
0
10
99.20443125
20
139.2682
30
0
42
0.27356440022137707
0
VERTEX
8
0
10
99.001715625
20
139.20868437500002
30
0
0
VERTEX
8
0
10
97.88898125
20
138.09595000000002
30
0
0
VERTEX
8
0
10
97.04310000000001
20
138.09595000000002
30
0
0
VERTEX
8
0
10
97.04310000000001
20
137.49405000000002
30
0
0
VERTEX
8
0
10
98.7077
20
137.49405000000002
30
0
0
VERTEX
8
0
10
98.7077
20
138.09595000000002
30
0
0
VERTEX
8
0
10
98.46371875
20
138.09595000000002
30
0
0
VERTEX
8
0
10
99.22956875
20
138.86180000000002
30
0
0
VERTEX
8
0
10
99.61083125
20
138.86180000000002
30
0
0
VERTEX
8
0
10
99.66263125
20
138.81
30
0
0
VERTEX
8
0
10
99.53
20
138.81
30
0
0
VERTEX
8
0
10
99.53
20
137.51000000000002
30
0
0
VERTEX
8
0
10
101.13000000000001
20
137.51000000000002
30
0
0
VERTEX
8
0
10
101.13000000000001
20
138.81
30
0
0
VERTEX
8
0
10
100.23736875
20
138.81
30
0
0
VERTEX
8
0
10
99.20368437500001
20
139.843684375
30
0
0
SEQEND
0
POLYLINE
66
1
8
16_copper
10
0.0
20
0.0
30
0.0
70
1
0
VERTEX
8
0
10
85.22589375
20
105.56021562500001
30
0
42
0.18594531331417416
0
VERTEX
8
0
10
85.09
20
105.6132
30
0
0
VERTEX
8
0
10
84.139390625
20
105.6132
30
0
42
0.9471819677841321
0
VERTEX
8
0
10
83.480075
20
105.24236875000001
30
0
0
VERTEX
8
0
10
83.5048625
20
105.19943125
30
0
42
0.5417412793133635
0
VERTEX
8
0
10
84.139390625
20
105.2068
30
0
0
VERTEX
8
0
10
85.00583125
20
105.2068
30
0
0
VERTEX
8
0
10
85.23443125
20
104.9782
30
0
42
0.27356440022137707
0
VERTEX
8
0
10
85.031715625
20
104.918684375
30
0
0
VERTEX
8
0
10
83.91898125
20
103.80595000000001
30
0
0
VERTEX
8
0
10
83.07310000000001
20
103.80595000000001
30
0
0
VERTEX
8
0
10
83.07310000000001
20
103.20405000000001
30
0
0
VERTEX
8
0
10
84.7377
20
103.20405000000001
30
0
0
VERTEX
8
0
10
84.7377
20
103.80595000000001
30
0
0
VERTEX
8
0
10
84.49371875
20
103.80595000000001
30
0
0
VERTEX
8
0
10
85.25956875
20
104.57180000000001
30
0
0
VERTEX
8
0
10
85.64083125
20
104.57180000000001
30
0
0
VERTEX
8
0
10
85.69263125
20
104.52000000000001
30
0
0
VERTEX
8
0
10
85.56
20
104.52000000000001
30
0
0
VERTEX
8
0
10
85.56
20
103.22
30
0
0
VERTEX
8
0
10
87.16000000000001
20
103.22
30
0
0
VERTEX
8
0
10
87.16000000000001
20
104.52000000000001
30
0
0
VERTEX
8
0
10
86.26736875
20
104.52000000000001
30
0
0
VERTEX
8
0
10
85.23368437500001
20
105.553684375
30
0
0
SEQEND
0
POLYLINE
66
1
8
16_copper
10
0.0
20
0.0
30
0.0
70
1
0
VERTEX
8
0
10
71.25589375
20
71.270215625
30
0
42
0.18594531331417416
0
VERTEX
8
0
10
71.12
20
71.3232
30
0
0
VERTEX
8
0
10
70.169390625
20
71.3232
30
0
42
0.9471819677841321
0
VERTEX
8
0
10
69.510075
20
70.95236875
30
0
0
VERTEX
8
0
10
69.5348625
20
70.90943125
30
0
42
0.5417412793133635
0
VERTEX
8
0
10
70.169390625
20
70.91680000000001
30
0
0
VERTEX
8
0
10
71.03583125
20
70.91680000000001
30
0
0
VERTEX
8
0
10
71.26443125
20
70.68820000000001
30
0
42
0.27356440022137707
0
VERTEX
8
0
10
71.061715625
20
70.628684375
30
0
0
VERTEX
8
0
10
69.94898125
20
69.51595
30
0
0
VERTEX
8
0
10
69.1031
20
69.51595
30
0
0
VERTEX
8
0
10
69.1031
20
68.91405
30
0
0
VERTEX
8
0
10
70.7677
20
68.91405
30
0
0
VERTEX
8
0
10
70.7677
20
69.51595
30
0
0
VERTEX
8
0
10
70.52371875
20
69.51595
30
0
0
VERTEX
8
0
10
71.28956875
20
70.2818
30
0
0
VERTEX
8
0
10
71.67083125
20
70.2818
30
0
0
VERTEX
8
0
10
71.72263125
20
70.23
30
0
0
VERTEX
8
0
10
71.59
20
70.23
30
0
0
VERTEX
8
0
10
71.59
20
68.93
30
0
0
VERTEX
8
0
10
73.19
20
68.93
30
0
0
VERTEX
8
0
10
73.19
20
70.23
30
0
0
VERTEX
8
0
10
72.29736875
20
70.23
30
0
0
VERTEX
8
0
10
71.263684375
20
71.263684375
30
0
0
SEQEND
0
POLYLINE
66
1
8
16_copper
10
0.0
20
0.0
30
0.0
70
1
0
VERTEX
8
0
10
56.015893750000004
20
36.980215625
30
0
42
0.18594531331417416
0
VERTEX
8
0
10
55.88
20
37.0332
30
0
0
VERTEX
8
0
10
54.929390625
20
37.0332
30
0
42
0.9471819677841321
0
VERTEX
8
0
10
54.270075000000006
20
36.66236875
30
0
0
VERTEX
8
0
10
54.2948625
20
36.619431250000005
30
0
42
0.5417412793133635
0
VERTEX
8
0
10
54.929390625
20
36.6268
30
0
0
VERTEX
8
0
10
55.795831250000006
20
36.6268
30
0
0
VERTEX
8
0
10
56.02443125
20
36.3982
30
0
42
0.27356440022137707
0
VERTEX
8
0
10
55.821715625
20
36.338684375
30
0
0
VERTEX
8
0
10
54.70898125
20
35.225950000000005
30
0
0
VERTEX
8
0
10
53.8631
20
35.225950000000005
30
0
0
VERTEX
8
0
10
53.8631
20
34.624050000000004
30
0
0
VERTEX
8
0
10
55.5277
20
34.624050000000004
30
0
0
VERTEX
8
0
10
55.5277
20
35.225950000000005
30
0
0
VERTEX
8
0
10
55.283718750000006
20
35.225950000000005
30
0
0
VERTEX
8
0
10
56.049568750000006
20
35.991800000000005
30
0
0
VERTEX
8
0
10
56.430831250000004
20
35.991800000000005
30
0
0
VERTEX
8
0
10
56.482631250000004
20
35.940000000000005
30
0
0
VERTEX
8
0
10
56.35
20
35.940000000000005
30
0
0
VERTEX
8
0
10
56.35
20
34.64
30
0
0
VERTEX
8
0
10
57.95
20
34.64
30
0
0
VERTEX
8
0
10
57.95
20
35.940000000000005
30
0
0
VERTEX
8
0
10
57.05736875
20
35.940000000000005
30
0
0
VERTEX
8
0
10
56.023684375
20
36.973684375000005
30
0
0
SEQEND
0
POLYLINE
66
1
8
16_copper
10
0.0
20
0.0
30
0.0
70
1
0
VERTEX
8
0
10
42.045893750000005
20
2.690215625
30
0
42
0.18594531331417416
0
VERTEX
8
0
10
41.910000000000004
20
2.7432000000000003
30
0
0
VERTEX
8
0
10
40.959390625000005
20
2.7432000000000003
30
0
42
0.9471819677841321
0
VERTEX
8
0
10
40.300075
20
2.37236875
30
0
0
VERTEX
8
0
10
40.3248625
20
2.3294312500000003
30
0
42
0.5417412793133635
0
VERTEX
8
0
10
40.959390625000005
20
2.3368
30
0
0
VERTEX
8
0
10
41.82583125
20
2.3368
30
0
0
VERTEX
8
0
10
42.05443125
20
2.1082
30
0
42
0.27356440022137707
0
VERTEX
8
0
10
41.851715625000004
20
2.048684375
30
0
0
VERTEX
8
0
10
40.73898125
20
0.9359500000000001
30
0
0
VERTEX
8
0
10
39.893100000000004
20
0.9359500000000001
30
0
0
VERTEX
8
0
10
39.893100000000004
20
0.33405
30
0
0
VERTEX
8
0
10
41.557700000000004
20
0.33405
30
0
0
VERTEX
8
0
10
41.557700000000004
20
0.9359500000000001
30
0
0
VERTEX
8
0
10
41.31371875
20
0.9359500000000001
30
0
0
VERTEX
8
0
10
42.07956875
20
1.7018
30
0
0
VERTEX
8
0
10
42.460831250000005
20
1.7018
30
0
0
VERTEX
8
0
10
42.512631250000005
20
1.6500000000000001
30
0
0
VERTEX
8
0
10
42.38
20
1.6500000000000001
30
0
0
VERTEX
8
0
10
42.38
20
0.35000000000000003
30
0
0
VERTEX
8
0
10
43.980000000000004
20
0.35000000000000003
30
0
0
VERTEX
8
0
10
43.980000000000004
20
1.6500000000000001
30
0
0
VERTEX
8
0
10
43.08736875
20
1.6500000000000001
30
0
0
VERTEX
8
0
10
42.053684375
20
2.6836843750000003
30
0
0
SEQEND
0
POLYLINE
66
1
8
16_copper
10
0.0
20
0.0
30
0.0
70
1
0
VERTEX
8
0
10
15.3070125
20
-19.450837500000002
30
0
42
0.36648739915395223
0
VERTEX
8
0
10
15.6464
20
-19.05
30
0
0
VERTEX
8
0
10
15.6464
20
-17.55
30
0
0
VERTEX
8
0
10
15.74
20
-17.55
30
0
0
VERTEX
8
0
10
15.74
20
-13.8
30
0
0
VERTEX
8
0
10
14.74
20
-13.8
30
0
0
VERTEX
8
0
10
14.74
20
-17.55
30
0
0
VERTEX
8
0
10
14.8336
20
-17.55
30
0
0
VERTEX
8
0
10
14.8336
20
-19.05
30
0
0
VERTEX
8
0
10
14.836721875
20
-19.100278125000003
30
0
0
VERTEX
8
0
10
14.846040625
20
-19.14978125
30
0
0
VERTEX
8
0
10
14.861409375000001
20
-19.197753125000002
30
0
0
VERTEX
8
0
10
14.8826
20
-19.24345625
30
0
0
VERTEX
8
0
10
14.909278125
20
-19.286184375
30
0
0
VERTEX
8
0
10
14.9410375
20
-19.325284375000003
30
0
0
VERTEX
8
0
10
14.977390625
20
-19.36015625
30
0
0
VERTEX
8
0
10
15.017778125000001
20
-19.390262500000002
30
0
0
VERTEX
8
0
10
15.061581250000001
20
-19.415140625
30
0
0
VERTEX
8
0
10
15.108125000000001
20
-19.434409375
30
0
0
VERTEX
8
0
10
15.15669375
20
-19.44776875
30
0
0
VERTEX
8
0
10
15.206543750000002
20
-19.455021875
30
0
0
VERTEX
8
0
10
15.256909375000001
20
-19.456046875000002
30
0
0
SEQEND
0
POLYLINE
66
1
8
16_copper
10
0.0
20
0.0
30
0.0
70
1
0
VERTEX
8
0
10
16.543621875
20
-25.80500625
30
0
42
0.6386321106686024
0
VERTEX
8
0
10
16.79736875
20
-25.11263125
30
0
0
VERTEX
8
0
10
15.74
20
-24.0552625
30
0
0
VERTEX
8
0
10
15.74
20
-20.55
30
0
0
VERTEX
8
0
10
14.74
20
-20.55
30
0
0
VERTEX
8
0
10
14.74
20
-24.3
30
0
0
VERTEX
8
0
10
14.871725000000001
20
-24.3
30
0
42
0.08846220848069591
0
VERTEX
8
0
10
14.952631250000001
20
-24.41736875
30
0
0
VERTEX
8
0
10
16.22263125
20
-25.68736875
30
0
0
VERTEX
8
0
10
16.260390625
20
-25.7207125
30
0
0
VERTEX
8
0
10
16.301984375
20
-25.749128125000002
30
0
0
VERTEX
8
0
10
16.346775
20
-25.772181250000003
30
0
0
VERTEX
8
0
10
16.394071875
20
-25.789515625
30
0
0
VERTEX
8
0
10
16.443153125000002
20
-25.800865625
30
0
0
VERTEX
8
0
10
16.493259375
20
-25.80605625
30
0
0
SEQEND
0
POLYLINE
66
1
8
1_copper
10
0.0
20
0.0
30
0.0
70
1
0
VERTEX
8
0
10
18.28
20
-17.55
30
0
0
VERTEX
8
0
10
18.28
20
-13.8
30
0
0
VERTEX
8
0
10
18.186400000000003
20
-13.8
30
0
0
VERTEX
8
0
10
18.186400000000003
20
-11.598337500000001
30
0
0
VERTEX
8
0
10
19.2183375
20
-10.5664
30
0
0
VERTEX
8
0
10
24.130000000000003
20
-10.5664
30
0
42
0.19891236737965798
0
VERTEX
8
0
10
24.41736875
20
-10.44736875
30
0
0
VERTEX
8
0
10
26.95736875
20
-7.907368750000001
30
0
42
0.06543925873536735
0
VERTEX
8
0
10
27.021615625000003
20
-7.8232
30
0
0
VERTEX
8
0
10
33.970609375
20
-7.8232
30
0
42
0.9471819677841321
0
VERTEX
8
0
10
34.629925
20
-7.452368750000001
30
0
0
VERTEX
8
0
10
34.605137500000005
20
-7.40943125
30
0
42
0.5417412793133635
0
VERTEX
8
0
10
33.970609375
20
-7.4168
30
0
0
VERTEX
8
0
10
27.0764
20
-7.4168
30
0
0
VERTEX
8
0
10
27.0764
20
-0.1683375
30
0
0
VERTEX
8
0
10
28.083684375
20
0.8389468750000001
30
0
0
VERTEX
8
0
10
29.066315625
20
-0.143684375
30
0
42
0.19891236737965798
0
VERTEX
8
0
10
29.21
20
-0.20320000000000002
30
0
0
VERTEX
8
0
10
30.150000000000002
20
-0.20320000000000002
30
0
0
VERTEX
8
0
10
30.150000000000002
20
-0.75
30
0
0
VERTEX
8
0
10
31.450000000000003
20
-0.75
30
0
0
VERTEX
8
0
10
31.450000000000003
20
0.75
30
0
0
VERTEX
8
0
10
30.150000000000002
20
0.75
30
0
0
VERTEX
8
0
10
30.150000000000002
20
0.20320000000000002
30
0
0
VERTEX
8
0
10
29.29416875
20
0.20320000000000002
30
0
0
VERTEX
8
0
10
28.371053125000003
20
1.1263156250000002
30
0
0
VERTEX
8
0
10
40.92736875
20
13.68263125
30
0
42
0.19891236737965798
0
VERTEX
8
0
10
41.0464
20
13.97
30
0
0
VERTEX
8
0
10
41.0464
20
26.466800000000003
30
0
0
VERTEX
8
0
10
42.860609375
20
26.466800000000003
30
0
42
0.9471819677841321
0
VERTEX
8
0
10
43.519925
20
26.83763125
30
0
0
VERTEX
8
0
10
43.495137500000006
20
26.880568750000002
30
0
42
0.5417412793133635
0
VERTEX
8
0
10
42.860609375
20
26.8732
30
0
0
VERTEX
8
0
10
41.0464
20
26.8732
30
0
0
VERTEX
8
0
10
41.0464
20
34.1216625
30
0
0
VERTEX
8
0
10
42.053684375
20
35.128946875000004
30
0
0
VERTEX
8
0
10
43.036315625
20
34.146315625
30
0
42
0.19891236737965798
0
VERTEX
8
0
10
43.18
20
34.086800000000004
30
0
0
VERTEX
8
0
10
44.120000000000005
20
34.086800000000004
30
0
0
VERTEX
8
0
10
44.120000000000005
20
33.54
30
0
0
VERTEX
8
0
10
45.42
20
33.54
30
0
0
VERTEX
8
0
10
45.42
20
35.04
30
0
0
VERTEX
8
0
10
44.120000000000005
20
35.04
30
0
0
VERTEX
8
0
10
44.120000000000005
20
34.4932
30
0
0
VERTEX
8
0
10
43.26416875
20
34.4932
30
0
0
VERTEX
8
0
10
42.341053125
20
35.416315625
30
0
0
VERTEX
8
0
10
54.897368750000005
20
47.97263125
30
0
42
0.19891236737965798
0
VERTEX
8
0
10
55.016400000000004
20
48.260000000000005
30
0
0
VERTEX
8
0
10
55.016400000000004
20
60.756800000000005
30
0
0
VERTEX
8
0
10
56.830609375
20
60.756800000000005
30
0
42
0.9471819677841321
0
VERTEX
8
0
10
57.489925
20
61.12763125
30
0
0
VERTEX
8
0
10
57.465137500000004
20
61.17056875
30
0
42
0.5417412793133635
0
VERTEX
8
0
10
56.830609375
20
61.1632
30
0
0
VERTEX
8
0
10
55.016400000000004
20
61.1632
30
0
0
VERTEX
8
0
10
55.016400000000004
20
67.14166250000001
30
0
0
VERTEX
8
0
10
57.293684375000005
20
69.418946875
30
0
0
VERTEX
8
0
10
58.276315625
20
68.436315625
30
0
42
0.19891236737965798
0
VERTEX
8
0
10
58.42
20
68.3768
30
0
0
VERTEX
8
0
10
59.36
20
68.3768
30
0
0
VERTEX
8
0
10
59.36
20
67.83
30
0
0
VERTEX
8
0
10
60.660000000000004
20
67.83
30
0
0
VERTEX
8
0
10
60.660000000000004
20
69.33
30
0
0
VERTEX
8
0
10
59.36
20
69.33
30
0
0
VERTEX
8
0
10
59.36
20
68.78320000000001
30
0
0
VERTEX
8
0
10
58.504168750000005
20
68.78320000000001
30
0
0
VERTEX
8
0
10
57.581053125000004
20
69.706315625
30
0
0
VERTEX
8
0
10
68.86736875
20
80.99263125
30
0
42
0.19891236737965798
0
VERTEX
8
0
10
68.9864
20
81.28
30
0
0
VERTEX
8
0
10
68.9864
20
93.77680000000001
30
0
0
VERTEX
8
0
10
70.80060937500001
20
93.77680000000001
30
0
42
0.9471819677841321
0
VERTEX
8
0
10
71.459925
20
94.14763125
30
0
0
VERTEX
8
0
10
71.43513750000001
20
94.19056875000001
30
0
42
0.5417412793133635
0
VERTEX
8
0
10
70.80060937500001
20
94.1832
30
0
0
VERTEX
8
0
10
68.9864
20
94.1832
30
0
0
VERTEX
8
0
10
68.9864
20
101.4316625
30
0
0
VERTEX
8
0
10
71.263684375
20
103.70894687500001
30
0
0
VERTEX
8
0
10
72.24631562500001
20
102.726315625
30
0
42
0.19891236737965798
0
VERTEX
8
0
10
72.39
20
102.66680000000001
30
0
0
VERTEX
8
0
10
73.33
20
102.66680000000001
30
0
0
VERTEX
8
0
10
73.33
20
102.12
30
0
0
VERTEX
8
0
10
74.63000000000001
20
102.12
30
0
0
VERTEX
8
0
10
74.63000000000001
20
103.62
30
0
0
VERTEX
8
0
10
73.33
20
103.62
30
0
0
VERTEX
8
0
10
73.33
20
103.0732
30
0
0
VERTEX
8
0
10
72.47416875
20
103.0732
30
0
0
VERTEX
8
0
10
71.55105312500001
20
103.99631562500001
30
0
0
VERTEX
8
0
10
84.10736875
20
116.55263125
30
0
42
0.19891236737965798
0
VERTEX
8
0
10
84.2264
20
116.84
30
0
0
VERTEX
8
0
10
84.2264
20
128.0668
30
0
0
VERTEX
8
0
10
86.040609375
20
128.0668
30
0
42
0.9471819677841321
0
VERTEX
8
0
10
86.69992500000001
20
128.43763125
30
0
0
VERTEX
8
0
10
86.6751375
20
128.48056875
30
0
42
0.5417412793133635
0
VERTEX
8
0
10
86.040609375
20
128.47320000000002
30
0
0
VERTEX
8
0
10
84.2264
20
128.47320000000002
30
0
0
VERTEX
8
0
10
84.2264
20
136.99166250000002
30
0
0
VERTEX
8
0
10
85.23368437500001
20
137.998946875
30
0
0
VERTEX
8
0
10
86.21631562500001
20
137.016315625
30
0
42
0.19891236737965798
0
VERTEX
8
0
10
86.36
20
136.95680000000002
30
0
0
VERTEX
8
0
10
87.3
20
136.95680000000002
30
0
0
VERTEX
8
0
10
87.3
20
136.41
30
0
0
VERTEX
8
0
10
88.60000000000001
20
136.41
30
0
0
VERTEX
8
0
10
88.60000000000001
20
137.91
30
0
0
VERTEX
8
0
10
87.3
20
137.91
30
0
0
VERTEX
8
0
10
87.3
20
137.3632
30
0
0
VERTEX
8
0
10
86.44416875
20
137.3632
30
0
0
VERTEX
8
0
10
85.52105312500001
20
138.28631562500001
30
0
0
VERTEX
8
0
10
98.07736875
20
150.84263125
30
0
42
0.19891236737965798
0
VERTEX
8
0
10
98.19640000000001
20
151.13
30
0
0
VERTEX
8
0
10
98.19640000000001
20
162.35680000000002
30
0
0
VERTEX
8
0
10
100.010609375
20
162.35680000000002
30
0
42
0.9471819677841321
0
VERTEX
8
0
10
100.669925
20
162.72763125
30
0
0
VERTEX
8
0
10
100.6451375
20
162.77056875
30
0
42
0.5417412793133635
0
VERTEX
8
0
10
100.010609375
20
162.7632
30
0
0
VERTEX
8
0
10
98.19640000000001
20
162.7632
30
0
0
VERTEX
8
0
10
98.19640000000001
20
168.74166250000002
30
0
0
VERTEX
8
0
10
100.4983375
20
171.0436
30
0
0
VERTEX
8
0
10
101.27000000000001
20
171.0436
30
0
0
VERTEX
8
0
10
101.27000000000001
20
170.70000000000002
30
0
0
VERTEX
8
0
10
102.57000000000001
20
170.70000000000002
30
0
0
VERTEX
8
0
10
102.57000000000001
20
172.20000000000002
30
0
0
VERTEX
8
0
10
101.27000000000001
20
172.20000000000002
30
0
0
VERTEX
8
0
10
101.27000000000001
20
171.8564
30
0
0
VERTEX
8
0
10
100.33
20
171.8564
30
0
42
0.19891236737965798
0
VERTEX
8
0
10
100.04263125
20
171.73736875
30
0
0
VERTEX
8
0
10
97.50263125000001
20
169.19736875
30
0
42
0.19891236737965798
0
VERTEX
8
0
10
97.3836
20
168.91
30
0
0
VERTEX
8
0
10
97.3836
20
151.2983375
30
0
0
VERTEX
8
0
10
83.53263125000001
20
137.44736875
30
0
42
0.19891236737965798
0
VERTEX
8
0
10
83.4136
20
137.16
30
0
0
VERTEX
8
0
10
83.4136
20
117.00833750000001
30
0
0
VERTEX
8
0
10
68.29263125
20
101.88736875000001
30
0
42
0.19891236737965798
0
VERTEX
8
0
10
68.17360000000001
20
101.60000000000001
30
0
0
VERTEX
8
0
10
68.17360000000001
20
81.44833750000001
30
0
0
VERTEX
8
0
10
54.32263125
20
67.59736875
30
0
42
0.19891236737965798
0
VERTEX
8
0
10
54.2036
20
67.31
30
0
0
VERTEX
8
0
10
54.2036
20
48.428337500000005
30
0
0
VERTEX
8
0
10
40.35263125
20
34.577368750000005
30
0
42
0.19891236737965798
0
VERTEX
8
0
10
40.2336
20
34.29
30
0
0
VERTEX
8
0
10
40.2336
20
14.1383375
30
0
0
VERTEX
8
0
10
26.382631250000003
20
0.28736875
30
0
42
0.19891236737965798
0
VERTEX
8
0
10
26.2636
20
0
30
0
0
VERTEX
8
0
10
26.2636
20
-7.4516625
30
0
0
VERTEX
8
0
10
23.961662500000003
20
-9.7536
30
0
0
VERTEX
8
0
10
19.05
20
-9.7536
30
0
42
0.19891236737965798
0
VERTEX
8
0
10
18.762631250000002
20
-9.872631250000001
30
0
0
VERTEX
8
0
10
17.492631250000002
20
-11.14263125
30
0
42
0.19891236737965798
0
VERTEX
8
0
10
17.3736
20
-11.43
30
0
0
VERTEX
8
0
10
17.3736
20
-13.8
30
0
0
VERTEX
8
0
10
17.28
20
-13.8
30
0
0
VERTEX
8
0
10
17.28
20
-17.55
30
0
0
VERTEX
8
0
10
17.3736
20
-17.55
30
0
0
VERTEX
8
0
10
17.3736
20
-20.55
30
0
0
VERTEX
8
0
10
17.28
20
-20.55
30
0
0
VERTEX
8
0
10
17.28
20
-24.3
30
0
0
VERTEX
8
0
10
18.28
20
-24.3
30
0
0
VERTEX
8
0
10
18.28
20
-20.55
30
0
0
VERTEX
8
0
10
18.186400000000003
20
-20.55
30
0
0
VERTEX
8
0
10
18.186400000000003
20
-17.55
30
0
0
SEQEND
0
POLYLINE
66
1
8
16_copper
10
0.0
20
0.0
30
0.0
70
1
0
VERTEX
8
0
10
114.0968
20
168.82583125000002
30
0
0
VERTEX
8
0
10
114.0968
20
166.45416875
30
0
0
VERTEX
8
0
10
110.40583125
20
162.7632
30
0
0
VERTEX
8
0
10
100.64939062500001
20
162.7632
30
0
42
0.9471819677841321
0
VERTEX
8
0
10
99.990075
20
162.39236875
30
0
0
VERTEX
8
0
10
100.0148625
20
162.34943125
30
0
42
0.5417412793133635
0
VERTEX
8
0
10
100.64939062500001
20
162.35680000000002
30
0
0
VERTEX
8
0
10
110.49000000000001
20
162.35680000000002
30
0
42
0.19891236737965798
0
VERTEX
8
0
10
110.633684375
20
162.416315625
30
0
0
VERTEX
8
0
10
114.443684375
20
166.226315625
30
0
42
0.19891236737965798
0
VERTEX
8
0
10
114.5032
20
166.37
30
0
0
VERTEX
8
0
10
114.5032
20
168.91
30
0
42
0.19891236737965798
0
VERTEX
8
0
10
114.443684375
20
169.05368437500002
30
0
0
VERTEX
8
0
10
113.81736875
20
169.68
30
0
0
VERTEX
8
0
10
113.93736875
20
169.8
30
0
0
VERTEX
8
0
10
115.10000000000001
20
169.8
30
0
0
VERTEX
8
0
10
115.10000000000001
20
171.1
30
0
0
VERTEX
8
0
10
113.5
20
171.1
30
0
0
VERTEX
8
0
10
113.5
20
169.93736875000002
30
0
0
VERTEX
8
0
10
113.31083125
20
169.7482
30
0
0
VERTEX
8
0
10
112.6777
20
169.7482
30
0
0
VERTEX
8
0
10
112.6777
20
169.84595000000002
30
0
0
VERTEX
8
0
10
111.01310000000001
20
169.84595000000002
30
0
0
VERTEX
8
0
10
111.01310000000001
20
169.24405000000002
30
0
0
VERTEX
8
0
10
112.6777
20
169.24405000000002
30
0
0
VERTEX
8
0
10
112.6777
20
169.3418
30
0
0
VERTEX
8
0
10
113.58083125
20
169.3418
30
0
0
SEQEND
0
POLYLINE
66
1
8
16_copper
10
0.0
20
0.0
30
0.0
70
1
0
VERTEX
8
0
10
100.1268
20
134.53583125
30
0
0
VERTEX
8
0
10
100.1268
20
132.16416875000002
30
0
0
VERTEX
8
0
10
96.43583125
20
128.47320000000002
30
0
0
VERTEX
8
0
10
86.67939062500001
20
128.47320000000002
30
0
42
0.9471819677841321
0
VERTEX
8
0
10
86.020075
20
128.10236875
30
0
0
VERTEX
8
0
10
86.04486250000001
20
128.05943125000002
30
0
42
0.5417412793133635
0
VERTEX
8
0
10
86.67939062500001
20
128.0668
30
0
0
VERTEX
8
0
10
96.52000000000001
20
128.0668
30
0
42
0.19891236737965798
0
VERTEX
8
0
10
96.663684375
20
128.12631562500002
30
0
0
VERTEX
8
0
10
100.473684375
20
131.93631562500002
30
0
42
0.19891236737965798
0
VERTEX
8
0
10
100.53320000000001
20
132.08
30
0
0
VERTEX
8
0
10
100.53320000000001
20
134.62
30
0
42
0.19891236737965798
0
VERTEX
8
0
10
100.473684375
20
134.763684375
30
0
0
VERTEX
8
0
10
99.84736875
20
135.39000000000001
30
0
0
VERTEX
8
0
10
99.96736875
20
135.51000000000002
30
0
0
VERTEX
8
0
10
101.13000000000001
20
135.51000000000002
30
0
0
VERTEX
8
0
10
101.13000000000001
20
136.81
30
0
0
VERTEX
8
0
10
99.53
20
136.81
30
0
0
VERTEX
8
0
10
99.53
20
135.64736875
30
0
0
VERTEX
8
0
10
99.34083125000001
20
135.4582
30
0
0
VERTEX
8
0
10
98.7077
20
135.4582
30
0
0
VERTEX
8
0
10
98.7077
20
135.55595
30
0
0
VERTEX
8
0
10
97.04310000000001
20
135.55595
30
0
0
VERTEX
8
0
10
97.04310000000001
20
134.95405
30
0
0
VERTEX
8
0
10
98.7077
20
134.95405
30
0
0
VERTEX
8
0
10
98.7077
20
135.05180000000001
30
0
0
VERTEX
8
0
10
99.61083125
20
135.05180000000001
30
0
0
SEQEND
0
POLYLINE
66
1
8
16_copper
10
0.0
20
0.0
30
0.0
70
1
0
VERTEX
8
0
10
86.1568
20
100.24583125000001
30
0
0
VERTEX
8
0
10
86.1568
20
99.14416875
30
0
0
VERTEX
8
0
10
81.19583125
20
94.1832
30
0
0
VERTEX
8
0
10
71.439390625
20
94.1832
30
0
42
0.9471819677841321
0
VERTEX
8
0
10
70.780075
20
93.81236875
30
0
0
VERTEX
8
0
10
70.8048625
20
93.76943125000001
30
0
42
0.5417412793133635
0
VERTEX
8
0
10
71.439390625
20
93.77680000000001
30
0
0
VERTEX
8
0
10
81.28
20
93.77680000000001
30
0
42
0.19891236737965798
0
VERTEX
8
0
10
81.42368437500001
20
93.836315625
30
0
0
VERTEX
8
0
10
86.503684375
20
98.91631562500001
30
0
42
0.19891236737965798
0
VERTEX
8
0
10
86.56320000000001
20
99.06
30
0
0
VERTEX
8
0
10
86.56320000000001
20
100.33
30
0
42
0.19891236737965798
0
VERTEX
8
0
10
86.503684375
20
100.473684375
30
0
0
VERTEX
8
0
10
85.87736875
20
101.10000000000001
30
0
0
VERTEX
8
0
10
85.99736875
20
101.22
30
0
0
VERTEX
8
0
10
87.16000000000001
20
101.22
30
0
0
VERTEX
8
0
10
87.16000000000001
20
102.52000000000001
30
0
0
VERTEX
8
0
10
85.56
20
102.52000000000001
30
0
0
VERTEX
8
0
10
85.56
20
101.35736875
30
0
0
VERTEX
8
0
10
85.37083125000001
20
101.1682
30
0
0
VERTEX
8
0
10
84.7377
20
101.1682
30
0
0
VERTEX
8
0
10
84.7377
20
101.26595
30
0
0
VERTEX
8
0
10
83.07310000000001
20
101.26595
30
0
0
VERTEX
8
0
10
83.07310000000001
20
100.66405
30
0
0
VERTEX
8
0
10
84.7377
20
100.66405
30
0
0
VERTEX
8
0
10
84.7377
20
100.76180000000001
30
0
0
VERTEX
8
0
10
85.64083125
20
100.76180000000001
30
0
0
SEQEND
0
POLYLINE
66
1
8
16_copper
10
0.0
20
0.0
30
0.0
70
1
0
VERTEX
8
0
10
72.1868
20
65.95583125
30
0
0
VERTEX
8
0
10
72.1868
20
64.85416875
30
0
0
VERTEX
8
0
10
68.49583125000001
20
61.1632
30
0
0
VERTEX
8
0
10
57.469390625
20
61.1632
30
0
42
0.9471819677841321
0
VERTEX
8
0
10
56.810075000000005
20
60.79236875
30
0
0
VERTEX
8
0
10
56.8348625
20
60.74943125
30
0
42
0.5417412793133635
0
VERTEX
8
0
10
57.469390625
20
60.756800000000005
30
0
0
VERTEX
8
0
10
68.58
20
60.756800000000005
30
0
42
0.19891236737965798
0
VERTEX
8
0
10
68.723684375
20
60.816315625
30
0
0
VERTEX
8
0
10
72.533684375
20
64.626315625
30
0
42
0.19891236737965798
0
VERTEX
8
0
10
72.59320000000001
20
64.77
30
0
0
VERTEX
8
0
10
72.59320000000001
20
66.04
30
0
42
0.19891236737965798
0
VERTEX
8
0
10
72.533684375
20
66.183684375
30
0
0
VERTEX
8
0
10
71.90736875
20
66.81
30
0
0
VERTEX
8
0
10
72.02736875000001
20
66.93
30
0
0
VERTEX
8
0
10
73.19
20
66.93
30
0
0
VERTEX
8
0
10
73.19
20
68.23
30
0
0
VERTEX
8
0
10
71.59
20
68.23
30
0
0
VERTEX
8
0
10
71.59
20
67.06736875
30
0
0
VERTEX
8
0
10
71.40083125000001
20
66.8782
30
0
0
VERTEX
8
0
10
70.7677
20
66.8782
30
0
0
VERTEX
8
0
10
70.7677
20
66.97595
30
0
0
VERTEX
8
0
10
69.1031
20
66.97595
30
0
0
VERTEX
8
0
10
69.1031
20
66.37405
30
0
0
VERTEX
8
0
10
70.7677
20
66.37405
30
0
0
VERTEX
8
0
10
70.7677
20
66.4718
30
0
0
VERTEX
8
0
10
71.67083125
20
66.4718
30
0
0
SEQEND
0
POLYLINE
66
1
8
16_copper
10
0.0
20
0.0
30
0.0
70
1
0
VERTEX
8
0
10
56.9468
20
31.66583125
30
0
0
VERTEX
8
0
10
56.9468
20
29.29416875
30
0
0
VERTEX
8
0
10
54.52583125
20
26.8732
30
0
0
VERTEX
8
0
10
43.499390625000004
20
26.8732
30
0
42
0.9471819677841321
0
VERTEX
8
0
10
42.840075
20
26.502368750000002
30
0
0
VERTEX
8
0
10
42.8648625
20
26.45943125
30
0
42
0.5417412793133635
0
VERTEX
8
0
10
43.499390625000004
20
26.466800000000003
30
0
0
VERTEX
8
0
10
54.61
20
26.466800000000003
30
0
42
0.19891236737965798
0
VERTEX
8
0
10
54.753684375000006
20
26.526315625000002
30
0
0
VERTEX
8
0
10
57.293684375000005
20
29.066315625
30
0
42
0.19891236737965798
0
VERTEX
8
0
10
57.3532
20
29.21
30
0
0
VERTEX
8
0
10
57.3532
20
31.75
30
0
42
0.19891236737965798
0
VERTEX
8
0
10
57.293684375000005
20
31.893684375000003
30
0
0
VERTEX
8
0
10
56.66736875
20
32.52
30
0
0
VERTEX
8
0
10
56.787368750000006
20
32.64
30
0
0
VERTEX
8
0
10
57.95
20
32.64
30
0
0
VERTEX
8
0
10
57.95
20
33.940000000000005
30
0
0
VERTEX
8
0
10
56.35
20
33.940000000000005
30
0
0
VERTEX
8
0
10
56.35
20
32.77736875
30
0
0
VERTEX
8
0
10
56.16083125
20
32.5882
30
0
0
VERTEX
8
0
10
55.5277
20
32.5882
30
0
0
VERTEX
8
0
10
55.5277
20
32.68595
30
0
0
VERTEX
8
0
10
53.8631
20
32.68595
30
0
0
VERTEX
8
0
10
53.8631
20
32.084050000000005
30
0
0
VERTEX
8
0
10
55.5277
20
32.084050000000005
30
0
0
VERTEX
8
0
10
55.5277
20
32.1818
30
0
0
VERTEX
8
0
10
56.430831250000004
20
32.1818
30
0
0
SEQEND
0
POLYLINE
66
1
8
16_copper
10
0.0
20
0.0
30
0.0
70
1
0
VERTEX
8
0
10
42.976800000000004
20
-2.62416875
30
0
0
VERTEX
8
0
10
42.976800000000004
20
-6.265831250000001
30
0
0
VERTEX
8
0
10
41.82583125
20
-7.4168
30
0
0
VERTEX
8
0
10
34.609390625
20
-7.4168
30
0
42
0.9471819677841321
0
VERTEX
8
0
10
33.950075
20
-7.7876312500000004
30
0
0
VERTEX
8
0
10
33.9748625
20
-7.83056875
30
0
42
0.5417412793133635
0
VERTEX
8
0
10
34.609390625
20
-7.8232
30
0
0
VERTEX
8
0
10
41.910000000000004
20
-7.8232
30
0
42
0.19891236737965798
0
VERTEX
8
0
10
42.053684375
20
-7.763684375
30
0
0
VERTEX
8
0
10
43.323684375
20
-6.493684375
30
0
42
0.19891236737965798
0
VERTEX
8
0
10
43.3832
20
-6.3500000000000005
30
0
0
VERTEX
8
0
10
43.3832
20
-2.54
30
0
42
0.19891236737965798
0
VERTEX
8
0
10
43.323684375
20
-2.396315625
30
0
0
VERTEX
8
0
10
42.69736875
20
-1.77
30
0
0
VERTEX
8
0
10
42.81736875
20
-1.6500000000000001
30
0
0
VERTEX
8
0
10
43.980000000000004
20
-1.6500000000000001
30
0
0
VERTEX
8
0
10
43.980000000000004
20
-0.35000000000000003
30
0
0
VERTEX
8
0
10
42.38
20
-0.35000000000000003
30
0
0
VERTEX
8
0
10
42.38
20
-1.51263125
30
0
0
VERTEX
8
0
10
42.19083125
20
-1.7018
30
0
0
VERTEX
8
0
10
41.557700000000004
20
-1.7018
30
0
0
VERTEX
8
0
10
41.557700000000004
20
-1.60405
30
0
0
VERTEX
8
0
10
39.893100000000004
20
-1.60405
30
0
0
VERTEX
8
0
10
39.893100000000004
20
-2.20595
30
0
0
VERTEX
8
0
10
41.557700000000004
20
-2.20595
30
0
0
VERTEX
8
0
10
41.557700000000004
20
-2.1082
30
0
0
VERTEX
8
0
10
42.460831250000005
20
-2.1082
30
0
0
SEQEND
0
POLYLINE
66
1
8
16_copper
10
0.0
20
0.0
30
0.0
70
1
0
VERTEX
8
0
10
18.28
20
-13.8
30
0
0
VERTEX
8
0
10
18.186400000000003
20
-13.8
30
0
0
VERTEX
8
0
10
18.186400000000003
20
-12.700000000000001
30
0
42
0.9999999999999999
0
VERTEX
8
0
10
17.3736
20
-12.700000000000001
30
0
0
VERTEX
8
0
10
17.3736
20
-13.8
30
0
0
VERTEX
8
0
10
17.28
20
-13.8
30
0
0
VERTEX
8
0
10
17.28
20
-17.55
30
0
0
VERTEX
8
0
10
18.28
20
-17.55
30
0
0
SEQEND
0
POLYLINE
66
1
8
16_copper
10
0.0
20
0.0
30
0.0
70
1
0
VERTEX
8
0
10
18.28
20
-20.55
30
0
0
VERTEX
8
0
10
18.186400000000003
20
-20.55
30
0
0
VERTEX
8
0
10
18.186400000000003
20
-19.05
30
0
42
0.9999999999999999
0
VERTEX
8
0
10
17.3736
20
-19.05
30
0
0
VERTEX
8
0
10
17.3736
20
-20.55
30
0
0
VERTEX
8
0
10
17.28
20
-20.55
30
0
0
VERTEX
8
0
10
17.28
20
-24.3
30
0
0
VERTEX
8
0
10
18.28
20
-24.3
30
0
0
SEQEND
0
POLYLINE
66
1
8
1_copper
10
0.0
20
0.0
30
0.0
70
1
0
VERTEX
8
0
10
33.35
20
-0.1524
30
0
0
VERTEX
8
0
10
38.1
20
-0.1524
30
0
42
0.9999999999999999
0
VERTEX
8
0
10
38.1
20
0.1524
30
0
0
VERTEX
8
0
10
33.35
20
0.1524
30
0
0
VERTEX
8
0
10
33.35
20
0.75
30
0
0
VERTEX
8
0
10
32.050000000000004
20
0.75
30
0
0
VERTEX
8
0
10
32.050000000000004
20
-0.75
30
0
0
VERTEX
8
0
10
33.35
20
-0.75
30
0
0
SEQEND
0
POLYLINE
66
1
8
1_copper
10
0.0
20
0.0
30
0.0
70
1
0
VERTEX
8
0
10
33.550000000000004
20
-3.9624
30
0
0
VERTEX
8
0
10
36.83
20
-3.9624
30
0
42
0.19891236737965798
0
VERTEX
8
0
10
36.937762500000005
20
-3.9177625000000003
30
0
0
VERTEX
8
0
10
38.2077625
20
-2.6477625000000002
30
0
42
0.9999999999999999
0
VERTEX
8
0
10
37.9922375
20
-2.4322375000000003
30
0
0
VERTEX
8
0
10
36.766875
20
-3.6576
30
0
0
VERTEX
8
0
10
33.550000000000004
20
-3.6576
30
0
0
VERTEX
8
0
10
33.550000000000004
20
-3.31
30
0
0
VERTEX
8
0
10
32.15
20
-3.31
30
0
0
VERTEX
8
0
10
32.15
20
-4.3100000000000005
30
0
0
VERTEX
8
0
10
33.550000000000004
20
-4.3100000000000005
30
0
0
SEQEND
0
POLYLINE
66
1
8
1_copper
10
0.0
20
0.0
30
0.0
70
1
0
VERTEX
8
0
10
47.32
20
34.1376
30
0
0
VERTEX
8
0
10
52.07
20
34.1376
30
0
42
0.9999999999999999
0
VERTEX
8
0
10
52.07
20
34.4424
30
0
0
VERTEX
8
0
10
47.32
20
34.4424
30
0
0
VERTEX
8
0
10
47.32
20
35.04
30
0
0
VERTEX
8
0
10
46.02
20
35.04
30
0
0
VERTEX
8
0
10
46.02
20
33.54
30
0
0
VERTEX
8
0
10
47.32
20
33.54
30
0
0
SEQEND
0
POLYLINE
66
1
8
1_copper
10
0.0
20
0.0
30
0.0
70
1
0
VERTEX
8
0
10
47.52
20
30.3276
30
0
0
VERTEX
8
0
10
50.800000000000004
20
30.3276
30
0
42
0.19891236737965798
0
VERTEX
8
0
10
50.907762500000004
20
30.3722375
30
0
0
VERTEX
8
0
10
52.1777625
20
31.6422375
30
0
42
0.9999999999999999
0
VERTEX
8
0
10
51.9622375
20
31.8577625
30
0
0
VERTEX
8
0
10
50.736875000000005
20
30.6324
30
0
0
VERTEX
8
0
10
47.52
20
30.6324
30
0
0
VERTEX
8
0
10
47.52
20
30.98
30
0
0
VERTEX
8
0
10
46.120000000000005
20
30.98
30
0
0
VERTEX
8
0
10
46.120000000000005
20
29.98
30
0
0
VERTEX
8
0
10
47.52
20
29.98
30
0
0
SEQEND
0
POLYLINE
66
1
8
1_copper
10
0.0
20
0.0
30
0.0
70
1
0
VERTEX
8
0
10
62.56
20
68.4276
30
0
0
VERTEX
8
0
10
67.31
20
68.4276
30
0
42
0.9999999999999999
0
VERTEX
8
0
10
67.31
20
68.7324
30
0
0
VERTEX
8
0
10
62.56
20
68.7324
30
0
0
VERTEX
8
0
10
62.56
20
69.33
30
0
0
VERTEX
8
0
10
61.260000000000005
20
69.33
30
0
0
VERTEX
8
0
10
61.260000000000005
20
67.83
30
0
0
VERTEX
8
0
10
62.56
20
67.83
30
0
0
SEQEND
0
POLYLINE
66
1
8
1_copper
10
0.0
20
0.0
30
0.0
70
1
0
VERTEX
8
0
10
62.760000000000005
20
64.61760000000001
30
0
0
VERTEX
8
0
10
66.04
20
64.61760000000001
30
0
42
0.19891236737965798
0
VERTEX
8
0
10
66.1477625
20
64.6622375
30
0
0
VERTEX
8
0
10
67.41776250000001
20
65.9322375
30
0
42
0.9999999999999999
0
VERTEX
8
0
10
67.20223750000001
20
66.1477625
30
0
0
VERTEX
8
0
10
65.976875
20
64.9224
30
0
0
VERTEX
8
0
10
62.760000000000005
20
64.9224
30
0
0
VERTEX
8
0
10
62.760000000000005
20
65.27000000000001
30
0
0
VERTEX
8
0
10
61.36
20
65.27000000000001
30
0
0
VERTEX
8
0
10
61.36
20
64.27
30
0
0
VERTEX
8
0
10
62.760000000000005
20
64.27
30
0
0
SEQEND
0
POLYLINE
66
1
8
1_copper
10
0.0
20
0.0
30
0.0
70
1
0
VERTEX
8
0
10
76.53
20
102.7176
30
0
0
VERTEX
8
0
10
81.28
20
102.7176
30
0
42
0.9999999999999999
0
VERTEX
8
0
10
81.28
20
103.0224
30
0
0
VERTEX
8
0
10
76.53
20
103.0224
30
0
0
VERTEX
8
0
10
76.53
20
103.62
30
0
0
VERTEX
8
0
10
75.23
20
103.62
30
0
0
VERTEX
8
0
10
75.23
20
102.12
30
0
0
VERTEX
8
0
10
76.53
20
102.12
30
0
0
SEQEND
0
POLYLINE
66
1
8
1_copper
10
0.0
20
0.0
30
0.0
70
1
0
VERTEX
8
0
10
76.73
20
98.9076
30
0
0
VERTEX
8
0
10
80.01
20
98.9076
30
0
42
0.19891236737965798
0
VERTEX
8
0
10
80.1177625
20
98.95223750000001
30
0
0
VERTEX
8
0
10
81.38776250000001
20
100.2222375
30
0
42
0.9999999999999999
0
VERTEX
8
0
10
81.17223750000001
20
100.4377625
30
0
0
VERTEX
8
0
10
79.946875
20
99.2124
30
0
0
VERTEX
8
0
10
76.73
20
99.2124
30
0
0
VERTEX
8
0
10
76.73
20
99.56
30
0
0
VERTEX
8
0
10
75.33
20
99.56
30
0
0
VERTEX
8
0
10
75.33
20
98.56
30
0
0
VERTEX
8
0
10
76.73
20
98.56
30
0
0
SEQEND
0
POLYLINE
66
1
8
1_copper
10
0.0
20
0.0
30
0.0
70
1
0
VERTEX
8
0
10
90.5
20
137.0076
30
0
0
VERTEX
8
0
10
95.25
20
137.0076
30
0
42
0.9999999999999999
0
VERTEX
8
0
10
95.25
20
137.3124
30
0
0
VERTEX
8
0
10
90.5
20
137.3124
30
0
0
VERTEX
8
0
10
90.5
20
137.91
30
0
0
VERTEX
8
0
10
89.2
20
137.91
30
0
0
VERTEX
8
0
10
89.2
20
136.41
30
0
0
VERTEX
8
0
10
90.5
20
136.41
30
0
0
SEQEND
0
POLYLINE
66
1
8
1_copper
10
0.0
20
0.0
30
0.0
70
1
0
VERTEX
8
0
10
90.7
20
133.1976
30
0
0
VERTEX
8
0
10
93.98
20
133.1976
30
0
42
0.19891236737965798
0
VERTEX
8
0
10
94.08776250000001
20
133.24223750000002
30
0
0
VERTEX
8
0
10
95.3577625
20
134.5122375
30
0
42
0.9999999999999999
0
VERTEX
8
0
10
95.14223750000001
20
134.7277625
30
0
0
VERTEX
8
0
10
93.916875
20
133.5024
30
0
0
VERTEX
8
0
10
90.7
20
133.5024
30
0
0
VERTEX
8
0
10
90.7
20
133.85
30
0
0
VERTEX
8
0
10
89.30000000000001
20
133.85
30
0
0
VERTEX
8
0
10
89.30000000000001
20
132.85
30
0
0
VERTEX
8
0
10
90.7
20
132.85
30
0
0
SEQEND
0
POLYLINE
66
1
8
1_copper
10
0.0
20
0.0
30
0.0
70
1
0
VERTEX
8
0
10
104.47
20
171.29760000000002
30
0
0
VERTEX
8
0
10
109.22
20
171.29760000000002
30
0
42
0.9999999999999999
0
VERTEX
8
0
10
109.22
20
171.60240000000002
30
0
0
VERTEX
8
0
10
104.47
20
171.60240000000002
30
0
0
VERTEX
8
0
10
104.47
20
172.20000000000002
30
0
0
VERTEX
8
0
10
103.17
20
172.20000000000002
30
0
0
VERTEX
8
0
10
103.17
20
170.70000000000002
30
0
0
VERTEX
8
0
10
104.47
20
170.70000000000002
30
0
0
SEQEND
0
POLYLINE
66
1
8
1_copper
10
0.0
20
0.0
30
0.0
70
1
0
VERTEX
8
0
10
104.67
20
167.48760000000001
30
0
0
VERTEX
8
0
10
107.95
20
167.48760000000001
30
0
42
0.19891236737965798
0
VERTEX
8
0
10
108.05776250000001
20
167.5322375
30
0
0
VERTEX
8
0
10
109.3277625
20
168.80223750000002
30
0
42
0.9999999999999999
0
VERTEX
8
0
10
109.1122375
20
169.0177625
30
0
0
VERTEX
8
0
10
107.886875
20
167.79240000000001
30
0
0
VERTEX
8
0
10
104.67
20
167.79240000000001
30
0
0
VERTEX
8
0
10
104.67
20
168.14000000000001
30
0
0
VERTEX
8
0
10
103.27000000000001
20
168.14000000000001
30
0
0
VERTEX
8
0
10
103.27000000000001
20
167.14000000000001
30
0
0
VERTEX
8
0
10
104.67
20
167.14000000000001
30
0
0
SEQEND
0
POLYLINE
66
1
8
1_copper
10
0.0
20
0.0
30
0.0
70
1
0
VERTEX
8
0
10
33.52
20
-20.55
30
0
0
VERTEX
8
0
10
32.52
20
-20.55
30
0
0
VERTEX
8
0
10
32.52
20
-22.144475
30
0
0
VERTEX
8
0
10
31.9024
20
-21.526875
30
0
0
VERTEX
8
0
10
31.9024
20
-14.033125
30
0
0
VERTEX
8
0
10
32.882937500000004
20
-13.052587500000001
30
0
42
0.9572325849358252
0
VERTEX
8
0
10
33.18763125
20
-12.360075
30
0
0
VERTEX
8
0
10
33.141828125
20
-12.341103125
30
0
42
0.6370250255407952
0
VERTEX
8
0
10
32.667412500000005
20
-12.8370625
30
0
0
VERTEX
8
0
10
31.6422375
20
-13.8622375
30
0
42
0.19891236737965798
0
VERTEX
8
0
10
31.5976
20
-13.97
30
0
0
VERTEX
8
0
10
31.5976
20
-21.59
30
0
42
0.19891236737965798
0
VERTEX
8
0
10
31.6422375
20
-21.6977625
30
0
0
VERTEX
8
0
10
32.4772375
20
-22.5327625
30
0
42
0.08588220037603113
0
VERTEX
8
0
10
32.52
20
-22.562103125
30
0
0
VERTEX
8
0
10
32.52
20
-24.3
30
0
0
VERTEX
8
0
10
33.52
20
-24.3
30
0
0
SEQEND
0
POLYLINE
66
1
8
16_copper
10
0.0
20
0.0
30
0.0
70
1
0
VERTEX
8
0
10
33.52
20
-13.8
30
0
0
VERTEX
8
0
10
33.1724
20
-13.8
30
0
0
VERTEX
8
0
10
33.1724
20
-13.046234375000001
30
0
42
0.6524219225059988
0
VERTEX
8
0
10
33.1724
20
-12.353765625000001
30
0
0
VERTEX
8
0
10
33.1724
20
-11.43
30
0
42
0.19891236737965798
0
VERTEX
8
0
10
33.1277625
20
-11.3222375
30
0
0
VERTEX
8
0
10
26.822400000000002
20
-5.016875000000001
30
0
0
VERTEX
8
0
10
26.822400000000002
20
-2.603125
30
0
0
VERTEX
8
0
10
31.813125000000003
20
2.3876
30
0
0
VERTEX
8
0
10
38.259725
20
2.3876
30
0
0
VERTEX
8
0
10
39.0032
20
1.644125
30
0
0
VERTEX
8
0
10
39.0032
20
0.2144
30
0
42
0.19891236737965798
0
VERTEX
8
0
10
39.0478375
20
0.10663750000000001
30
0
0
VERTEX
8
0
10
39.893100000000004
20
-0.7386250000000001
30
0
0
VERTEX
8
0
10
39.893100000000004
20
-0.9359500000000001
30
0
0
VERTEX
8
0
10
41.557700000000004
20
-0.9359500000000001
30
0
0
VERTEX
8
0
10
41.557700000000004
20
-0.33405
30
0
0
VERTEX
8
0
10
39.919575
20
-0.33405
30
0
0
VERTEX
8
0
10
39.308
20
0.277525
30
0
0
VERTEX
8
0
10
39.308
20
1.7072500000000002
30
0
42
0.19891236737965798
0
VERTEX
8
0
10
39.2633625
20
1.8150125000000001
30
0
0
VERTEX
8
0
10
38.4306125
20
2.6477625000000002
30
0
42
0.19891236737965798
0
VERTEX
8
0
10
38.32285
20
2.6924
30
0
0
VERTEX
8
0
10
31.75
20
2.6924
30
0
42
0.19891236737965798
0
VERTEX
8
0
10
31.6422375
20
2.6477625000000002
30
0
0
VERTEX
8
0
10
26.562237500000002
20
-2.4322375000000003
30
0
42
0.19891236737965798
0
VERTEX
8
0
10
26.5176
20
-2.54
30
0
0
VERTEX
8
0
10
26.5176
20
-5.08
30
0
42
0.19891236737965798
0
VERTEX
8
0
10
26.562237500000002
20
-5.1877625
30
0
0
VERTEX
8
0
10
32.8676
20
-11.493125000000001
30
0
0
VERTEX
8
0
10
32.8676
20
-12.353765625000001
30
0
42
0.6524219225059988
0
VERTEX
8
0
10
32.8676
20
-13.046234375000001
30
0
0
VERTEX
8
0
10
32.8676
20
-13.8
30
0
0
VERTEX
8
0
10
32.52
20
-13.8
30
0
0
VERTEX
8
0
10
32.52
20
-17.55
30
0
0
VERTEX
8
0
10
33.52
20
-17.55
30
0
0
SEQEND
0
POLYLINE
66
1
8
1_copper
10
0.0
20
0.0
30
0.0
70
1
0
VERTEX
8
0
10
30.98
20
-20.55
30
0
0
VERTEX
8
0
10
29.98
20
-20.55
30
0
0
VERTEX
8
0
10
29.98
20
-22.144475
30
0
0
VERTEX
8
0
10
29.3624
20
-21.526875
30
0
0
VERTEX
8
0
10
29.3624
20
-14.033125
30
0
0
VERTEX
8
0
10
30.3429375
20
-13.052587500000001
30
0
42
0.9572325849358252
0
VERTEX
8
0
10
30.64763125
20
-12.360075
30
0
0
VERTEX
8
0
10
30.601828125
20
-12.341103125
30
0
42
0.6370250255407952
0
VERTEX
8
0
10
30.127412500000002
20
-12.8370625
30
0
0
VERTEX
8
0
10
29.1022375
20
-13.8622375
30
0
42
0.19891236737965798
0
VERTEX
8
0
10
29.0576
20
-13.97
30
0
0
VERTEX
8
0
10
29.0576
20
-21.59
30
0
42
0.19891236737965798
0
VERTEX
8
0
10
29.1022375
20
-21.6977625
30
0
0
VERTEX
8
0
10
29.937237500000002
20
-22.5327625
30
0
42
0.08588220037603113
0
VERTEX
8
0
10
29.98
20
-22.562103125
30
0
0
VERTEX
8
0
10
29.98
20
-24.3
30
0
0
VERTEX
8
0
10
30.98
20
-24.3
30
0
0
SEQEND
0
POLYLINE
66
1
8
16_copper
10
0.0
20
0.0
30
0.0
70
1
0
VERTEX
8
0
10
30.98
20
-13.8
30
0
0
VERTEX
8
0
10
30.6324
20
-13.8
30
0
0
VERTEX
8
0
10
30.6324
20
-13.046234375000001
30
0
42
0.6524219225059988
0
VERTEX
8
0
10
30.6324
20
-12.353765625000001
30
0
0
VERTEX
8
0
10
30.6324
20
-11.43
30
0
42
0.19891236737965798
0
VERTEX
8
0
10
30.5877625
20
-11.3222375
30
0
0
VERTEX
8
0
10
24.282400000000003
20
-5.016875000000001
30
0
0
VERTEX
8
0
10
24.282400000000003
20
13.906875000000001
30
0
0
VERTEX
8
0
10
47.053125
20
36.677600000000005
30
0
0
VERTEX
8
0
10
52.006875
20
36.677600000000005
30
0
0
VERTEX
8
0
10
53.1876
20
35.496875
30
0
0
VERTEX
8
0
10
53.1876
20
34.29
30
0
42
0.19891236737965798
0
VERTEX
8
0
10
53.232237500000004
20
34.1822375
30
0
0
VERTEX
8
0
10
53.8631
20
33.551375
30
0
0
VERTEX
8
0
10
53.8631
20
33.35405
30
0
0
VERTEX
8
0
10
55.5277
20
33.35405
30
0
0
VERTEX
8
0
10
55.5277
20
33.95595
30
0
0
VERTEX
8
0
10
53.889575
20
33.95595
30
0
0
VERTEX
8
0
10
53.4924
20
34.353125
30
0
0
VERTEX
8
0
10
53.4924
20
35.56
30
0
42
0.19891236737965798
0
VERTEX
8
0
10
53.4477625
20
35.6677625
30
0
0
VERTEX
8
0
10
52.1777625
20
36.937762500000005
30
0
42
0.19891236737965798
0
VERTEX
8
0
10
52.07
20
36.9824
30
0
0
VERTEX
8
0
10
46.99
20
36.9824
30
0
42
0.19891236737965798
0
VERTEX
8
0
10
46.8822375
20
36.937762500000005
30
0
0
VERTEX
8
0
10
24.022237500000003
20
14.0777625
30
0
42
0.19891236737965798
0
VERTEX
8
0
10
23.977600000000002
20
13.97
30
0
0
VERTEX
8
0
10
23.977600000000002
20
-5.08
30
0
42
0.19891236737965798
0
VERTEX
8
0
10
24.022237500000003
20
-5.1877625
30
0
0
VERTEX
8
0
10
30.3276
20
-11.493125000000001
30
0
0
VERTEX
8
0
10
30.3276
20
-12.353765625000001
30
0
42
0.6524219225059988
0
VERTEX
8
0
10
30.3276
20
-13.046234375000001
30
0
0
VERTEX
8
0
10
30.3276
20
-13.8
30
0
0
VERTEX
8
0
10
29.98
20
-13.8
30
0
0
VERTEX
8
0
10
29.98
20
-17.55
30
0
0
VERTEX
8
0
10
30.98
20
-17.55
30
0
0
SEQEND
0
POLYLINE
66
1
8
1_copper
10
0.0
20
0.0
30
0.0
70
1
0
VERTEX
8
0
10
28.44
20
-20.55
30
0
0
VERTEX
8
0
10
27.44
20
-20.55
30
0
0
VERTEX
8
0
10
27.44
20
-22.144475
30
0
0
VERTEX
8
0
10
26.822400000000002
20
-21.526875
30
0
0
VERTEX
8
0
10
26.822400000000002
20
-14.033125
30
0
0
VERTEX
8
0
10
27.802937500000002
20
-13.052587500000001
30
0
42
0.9572325849358252
0
VERTEX
8
0
10
28.10763125
20
-12.360075
30
0
0
VERTEX
8
0
10
28.061828125
20
-12.341103125
30
0
42
0.6370250255407952
0
VERTEX
8
0
10
27.587412500000003
20
-12.8370625
30
0
0
VERTEX
8
0
10
26.562237500000002
20
-13.8622375
30
0
42
0.19891236737965798
0
VERTEX
8
0
10
26.5176
20
-13.97
30
0
0
VERTEX
8
0
10
26.5176
20
-21.59
30
0
42
0.19891236737965798
0
VERTEX
8
0
10
26.562237500000002
20
-21.6977625
30
0
0
VERTEX
8
0
10
27.397237500000003
20
-22.5327625
30
0
42
0.08588220037603113
0
VERTEX
8
0
10
27.44
20
-22.562103125
30
0
0
VERTEX
8
0
10
27.44
20
-24.3
30
0
0
VERTEX
8
0
10
28.44
20
-24.3
30
0
0
SEQEND
0
POLYLINE
66
1
8
16_copper
10
0.0
20
0.0
30
0.0
70
1
0
VERTEX
8
0
10
28.44
20
-13.8
30
0
0
VERTEX
8
0
10
28.0924
20
-13.8
30
0
0
VERTEX
8
0
10
28.0924
20
-13.046234375000001
30
0
42
0.6524219225059988
0
VERTEX
8
0
10
28.0924
20
-12.353765625000001
30
0
0
VERTEX
8
0
10
28.0924
20
-11.43
30
0
42
0.19891236737965798
0
VERTEX
8
0
10
28.0477625
20
-11.3222375
30
0
0
VERTEX
8
0
10
21.7424
20
-5.016875000000001
30
0
0
VERTEX
8
0
10
21.7424
20
13.906875000000001
30
0
0
VERTEX
8
0
10
54.7177625
20
46.8822375
30
0
42
0.19891236737965798
0
VERTEX
8
0
10
54.7624
20
46.99
30
0
0
VERTEX
8
0
10
54.7624
20
65.976875
30
0
0
VERTEX
8
0
10
59.753125000000004
20
70.9676
30
0
0
VERTEX
8
0
10
67.246875
20
70.9676
30
0
0
VERTEX
8
0
10
68.4276
20
69.78687500000001
30
0
0
VERTEX
8
0
10
68.4276
20
68.58
30
0
42
0.19891236737965798
0
VERTEX
8
0
10
68.4722375
20
68.4722375
30
0
0
VERTEX
8
0
10
69.1031
20
67.841375
30
0
0
VERTEX
8
0
10
69.1031
20
67.64405000000001
30
0
0
VERTEX
8
0
10
70.7677
20
67.64405000000001
30
0
0
VERTEX
8
0
10
70.7677
20
68.24595000000001
30
0
0
VERTEX
8
0
10
69.129575
20
68.24595000000001
30
0
0
VERTEX
8
0
10
68.7324
20
68.643125
30
0
0
VERTEX
8
0
10
68.7324
20
69.85000000000001
30
0
42
0.19891236737965798
0
VERTEX
8
0
10
68.6877625
20
69.9577625
30
0
0
VERTEX
8
0
10
67.41776250000001
20
71.2277625
30
0
42
0.19891236737965798
0
VERTEX
8
0
10
67.31
20
71.2724
30
0
0
VERTEX
8
0
10
59.690000000000005
20
71.2724
30
0
42
0.19891236737965798
0
VERTEX
8
0
10
59.582237500000005
20
71.2277625
30
0
0
VERTEX
8
0
10
54.5022375
20
66.1477625
30
0
42
0.19891236737965798
0
VERTEX
8
0
10
54.4576
20
66.04
30
0
0
VERTEX
8
0
10
54.4576
20
47.053125
30
0
0
VERTEX
8
0
10
21.4822375
20
14.0777625
30
0
42
0.19891236737965798
0
VERTEX
8
0
10
21.4376
20
13.97
30
0
0
VERTEX
8
0
10
21.4376
20
-5.08
30
0
42
0.19891236737965798
0
VERTEX
8
0
10
21.4822375
20
-5.1877625
30
0
0
VERTEX
8
0
10
27.7876
20
-11.493125000000001
30
0
0
VERTEX
8
0
10
27.7876
20
-12.353765625000001
30
0
42
0.6524219225059988
0
VERTEX
8
0
10
27.7876
20
-13.046234375000001
30
0
0
VERTEX
8
0
10
27.7876
20
-13.8
30
0
0
VERTEX
8
0
10
27.44
20
-13.8
30
0
0
VERTEX
8
0
10
27.44
20
-17.55
30
0
0
VERTEX
8
0
10
28.44
20
-17.55
30
0
0
SEQEND
0
POLYLINE
66
1
8
1_copper
10
0.0
20
0.0
30
0.0
70
1
0
VERTEX
8
0
10
25.900000000000002
20
-20.55
30
0
0
VERTEX
8
0
10
24.900000000000002
20
-20.55
30
0
0
VERTEX
8
0
10
24.900000000000002
20
-22.144475
30
0
0
VERTEX
8
0
10
24.282400000000003
20
-21.526875
30
0
0
VERTEX
8
0
10
24.282400000000003
20
-14.033125
30
0
0
VERTEX
8
0
10
25.2629375
20
-13.052587500000001
30
0
42
0.9572325849358252
0
VERTEX
8
0
10
25.56763125
20
-12.360075
30
0
0
VERTEX
8
0
10
25.521828125000003
20
-12.341103125
30
0
42
0.6370250255407952
0
VERTEX
8
0
10
25.0474125
20
-12.8370625
30
0
0
VERTEX
8
0
10
24.022237500000003
20
-13.8622375
30
0
42
0.19891236737965798
0
VERTEX
8
0
10
23.977600000000002
20
-13.97
30
0
0
VERTEX
8
0
10
23.977600000000002
20
-21.59
30
0
42
0.19891236737965798
0
VERTEX
8
0
10
24.022237500000003
20
-21.6977625
30
0
0
VERTEX
8
0
10
24.8572375
20
-22.5327625
30
0
42
0.08588220037603113
0
VERTEX
8
0
10
24.900000000000002
20
-22.562103125
30
0
0
VERTEX
8
0
10
24.900000000000002
20
-24.3
30
0
0
VERTEX
8
0
10
25.900000000000002
20
-24.3
30
0
0
SEQEND
0
POLYLINE
66
1
8
16_copper
10
0.0
20
0.0
30
0.0
70
1
0
VERTEX
8
0
10
25.900000000000002
20
-13.8
30
0
0
VERTEX
8
0
10
25.552400000000002
20
-13.8
30
0
0
VERTEX
8
0
10
25.552400000000002
20
-13.046234375000001
30
0
42
0.6524219225059988
0
VERTEX
8
0
10
25.552400000000002
20
-12.353765625000001
30
0
0
VERTEX
8
0
10
25.552400000000002
20
-11.43
30
0
42
0.19891236737965798
0
VERTEX
8
0
10
25.507762500000002
20
-11.3222375
30
0
0
VERTEX
8
0
10
19.2024
20
-5.016875000000001
30
0
0
VERTEX
8
0
10
19.2024
20
13.906875000000001
30
0
0
VERTEX
8
0
10
52.1777625
20
46.8822375
30
0
42
0.19891236737965798
0
VERTEX
8
0
10
52.2224
20
46.99
30
0
0
VERTEX
8
0
10
52.2224
20
65.976875
30
0
0
VERTEX
8
0
10
68.6877625
20
82.4422375
30
0
42
0.19891236737965798
0
VERTEX
8
0
10
68.7324
20
82.55
30
0
0
VERTEX
8
0
10
68.7324
20
100.266875
30
0
0
VERTEX
8
0
10
73.72312500000001
20
105.25760000000001
30
0
0
VERTEX
8
0
10
81.216875
20
105.25760000000001
30
0
0
VERTEX
8
0
10
82.3976
20
104.076875
30
0
0
VERTEX
8
0
10
82.3976
20
102.87
30
0
42
0.19891236737965798
0
VERTEX
8
0
10
82.4422375
20
102.76223750000001
30
0
0
VERTEX
8
0
10
83.07310000000001
20
102.131375
30
0
0
VERTEX
8
0
10
83.07310000000001
20
101.93405
30
0
0
VERTEX
8
0
10
84.7377
20
101.93405
30
0
0
VERTEX
8
0
10
84.7377
20
102.53595
30
0
0
VERTEX
8
0
10
83.099575
20
102.53595
30
0
0
VERTEX
8
0
10
82.7024
20
102.933125
30
0
0
VERTEX
8
0
10
82.7024
20
104.14
30
0
42
0.19891236737965798
0
VERTEX
8
0
10
82.6577625
20
104.24776250000001
30
0
0
VERTEX
8
0
10
81.38776250000001
20
105.5177625
30
0
42
0.19891236737965798
0
VERTEX
8
0
10
81.28
20
105.56240000000001
30
0
0
VERTEX
8
0
10
73.66
20
105.56240000000001
30
0
42
0.19891236737965798
0
VERTEX
8
0
10
73.5522375
20
105.5177625
30
0
0
VERTEX
8
0
10
68.4722375
20
100.4377625
30
0
42
0.19891236737965798
0
VERTEX
8
0
10
68.4276
20
100.33
30
0
0
VERTEX
8
0
10
68.4276
20
82.61312500000001
30
0
0
VERTEX
8
0
10
51.9622375
20
66.1477625
30
0
42
0.19891236737965798
0
VERTEX
8
0
10
51.9176
20
66.04
30
0
0
VERTEX
8
0
10
51.9176
20
47.053125
30
0
0
VERTEX
8
0
10
18.9422375
20
14.0777625
30
0
42
0.19891236737965798
0
VERTEX
8
0
10
18.8976
20
13.97
30
0
0
VERTEX
8
0
10
18.8976
20
-5.08
30
0
42
0.19891236737965798
0
VERTEX
8
0
10
18.9422375
20
-5.1877625
30
0
0
VERTEX
8
0
10
25.247600000000002
20
-11.493125000000001
30
0
0
VERTEX
8
0
10
25.247600000000002
20
-12.353765625000001
30
0
42
0.6524219225059988
0
VERTEX
8
0
10
25.247600000000002
20
-13.046234375000001
30
0
0
VERTEX
8
0
10
25.247600000000002
20
-13.8
30
0
0
VERTEX
8
0
10
24.900000000000002
20
-13.8
30
0
0
VERTEX
8
0
10
24.900000000000002
20
-17.55
30
0
0
VERTEX
8
0
10
25.900000000000002
20
-17.55
30
0
0
SEQEND
0
POLYLINE
66
1
8
1_copper
10
0.0
20
0.0
30
0.0
70
1
0
VERTEX
8
0
10
23.36
20
-20.55
30
0
0
VERTEX
8
0
10
22.36
20
-20.55
30
0
0
VERTEX
8
0
10
22.36
20
-22.144475
30
0
0
VERTEX
8
0
10
21.7424
20
-21.526875
30
0
0
VERTEX
8
0
10
21.7424
20
-14.033125
30
0
0
VERTEX
8
0
10
22.7229375
20
-13.052587500000001
30
0
42
0.9572325849358252
0
VERTEX
8
0
10
23.027631250000002
20
-12.360075
30
0
0
VERTEX
8
0
10
22.981828125
20
-12.341103125
30
0
42
0.6370250255407952
0
VERTEX
8
0
10
22.5074125
20
-12.8370625
30
0
0
VERTEX
8
0
10
21.4822375
20
-13.8622375
30
0
42
0.19891236737965798
0
VERTEX
8
0
10
21.4376
20
-13.97
30
0
0
VERTEX
8
0
10
21.4376
20
-21.59
30
0
42
0.19891236737965798
0
VERTEX
8
0
10
21.4822375
20
-21.6977625
30
0
0
VERTEX
8
0
10
22.3172375
20
-22.5327625
30
0
42
0.08588220037603113
0
VERTEX
8
0
10
22.36
20
-22.562103125
30
0
0
VERTEX
8
0
10
22.36
20
-24.3
30
0
0
VERTEX
8
0
10
23.36
20
-24.3
30
0
0
SEQEND
0
POLYLINE
66
1
8
16_copper
10
0.0
20
0.0
30
0.0
70
1
0
VERTEX
8
0
10
23.36
20
-13.8
30
0
0
VERTEX
8
0
10
23.0124
20
-13.8
30
0
0
VERTEX
8
0
10
23.0124
20
-13.046234375000001
30
0
42
0.6524219225059988
0
VERTEX
8
0
10
23.0124
20
-12.353765625000001
30
0
0
VERTEX
8
0
10
23.0124
20
-11.43
30
0
42
0.19891236737965798
0
VERTEX
8
0
10
22.967762500000003
20
-11.3222375
30
0
0
VERTEX
8
0
10
16.6624
20
-5.016875000000001
30
0
0
VERTEX
8
0
10
16.6624
20
13.906875000000001
30
0
0
VERTEX
8
0
10
49.6377625
20
46.8822375
30
0
42
0.19891236737965798
0
VERTEX
8
0
10
49.6824
20
46.99
30
0
0
VERTEX
8
0
10
49.6824
20
65.976875
30
0
0
VERTEX
8
0
10
66.1477625
20
82.4422375
30
0
42
0.19891236737965798
0
VERTEX
8
0
10
66.1924
20
82.55
30
0
0
VERTEX
8
0
10
66.1924
20
100.266875
30
0
0
VERTEX
8
0
10
83.9277625
20
118.0022375
30
0
42
0.19891236737965798
0
VERTEX
8
0
10
83.97240000000001
20
118.11
30
0
0
VERTEX
8
0
10
83.97240000000001
20
134.55687500000002
30
0
0
VERTEX
8
0
10
88.963125
20
139.54760000000002
30
0
0
VERTEX
8
0
10
95.186875
20
139.54760000000002
30
0
0
VERTEX
8
0
10
96.36760000000001
20
138.366875
30
0
0
VERTEX
8
0
10
96.36760000000001
20
137.16
30
0
42
0.19891236737965798
0
VERTEX
8
0
10
96.4122375
20
137.05223750000002
30
0
0
VERTEX
8
0
10
97.04310000000001
20
136.421375
30
0
0
VERTEX
8
0
10
97.04310000000001
20
136.22405
30
0
0
VERTEX
8
0
10
98.7077
20
136.22405
30
0
0
VERTEX
8
0
10
98.7077
20
136.82595
30
0
0
VERTEX
8
0
10
97.069575
20
136.82595
30
0
0
VERTEX
8
0
10
96.67240000000001
20
137.223125
30
0
0
VERTEX
8
0
10
96.67240000000001
20
138.43
30
0
42
0.19891236737965798
0
VERTEX
8
0
10
96.6277625
20
138.5377625
30
0
0
VERTEX
8
0
10
95.3577625
20
139.8077625
30
0
42
0.19891236737965798
0
VERTEX
8
0
10
95.25
20
139.85240000000002
30
0
0
VERTEX
8
0
10
88.9
20
139.85240000000002
30
0
42
0.19891236737965798
0
VERTEX
8
0
10
88.7922375
20
139.8077625
30
0
0
VERTEX
8
0
10
83.7122375
20
134.7277625
30
0
42
0.19891236737965798
0
VERTEX
8
0
10
83.66760000000001
20
134.62
30
0
0
VERTEX
8
0
10
83.66760000000001
20
118.173125
30
0
0
VERTEX
8
0
10
65.9322375
20
100.4377625
30
0
42
0.19891236737965798
0
VERTEX
8
0
10
65.8876
20
100.33
30
0
0
VERTEX
8
0
10
65.8876
20
82.61312500000001
30
0
0
VERTEX
8
0
10
49.4222375
20
66.1477625
30
0
42
0.19891236737965798
0
VERTEX
8
0
10
49.3776
20
66.04
30
0
0
VERTEX
8
0
10
49.3776
20
47.053125
30
0
0
VERTEX
8
0
10
16.402237500000002
20
14.0777625
30
0
42
0.19891236737965798
0
VERTEX
8
0
10
16.3576
20
13.97
30
0
0
VERTEX
8
0
10
16.3576
20
-5.08
30
0
42
0.19891236737965798
0
VERTEX
8
0
10
16.402237500000002
20
-5.1877625
30
0
0
VERTEX
8
0
10
22.7076
20
-11.493125000000001
30
0
0
VERTEX
8
0
10
22.7076
20
-12.353765625000001
30
0
42
0.6524219225059988
0
VERTEX
8
0
10
22.7076
20
-13.046234375000001
30
0
0
VERTEX
8
0
10
22.7076
20
-13.8
30
0
0
VERTEX
8
0
10
22.36
20
-13.8
30
0
0
VERTEX
8
0
10
22.36
20
-17.55
30
0
0
VERTEX
8
0
10
23.36
20
-17.55
30
0
0
SEQEND
0
POLYLINE
66
1
8
1_copper
10
0.0
20
0.0
30
0.0
70
1
0
VERTEX
8
0
10
20.82
20
-20.55
30
0
0
VERTEX
8
0
10
19.82
20
-20.55
30
0
0
VERTEX
8
0
10
19.82
20
-22.144475
30
0
0
VERTEX
8
0
10
19.2024
20
-21.526875
30
0
0
VERTEX
8
0
10
19.2024
20
-14.033125
30
0
0
VERTEX
8
0
10
20.1829375
20
-13.052587500000001
30
0
42
0.9572325849358252
0
VERTEX
8
0
10
20.48763125
20
-12.360075
30
0
0
VERTEX
8
0
10
20.441828125
20
-12.341103125
30
0
42
0.6370250255407952
0
VERTEX
8
0
10
19.967412500000002
20
-12.8370625
30
0
0
VERTEX
8
0
10
18.9422375
20
-13.8622375
30
0
42
0.19891236737965798
0
VERTEX
8
0
10
18.8976
20
-13.97
30
0
0
VERTEX
8
0
10
18.8976
20
-21.59
30
0
42
0.19891236737965798
0
VERTEX
8
0
10
18.9422375
20
-21.6977625
30
0
0
VERTEX
8
0
10
19.777237500000002
20
-22.5327625
30
0
42
0.08588220037603113
0
VERTEX
8
0
10
19.82
20
-22.562103125
30
0
0
VERTEX
8
0
10
19.82
20
-24.3
30
0
0
VERTEX
8
0
10
20.82
20
-24.3
30
0
0
SEQEND
0
POLYLINE
66
1
8
16_copper
10
0.0
20
0.0
30
0.0
70
1
0
VERTEX
8
0
10
20.82
20
-13.8
30
0
0
VERTEX
8
0
10
20.4724
20
-13.8
30
0
0
VERTEX
8
0
10
20.4724
20
-13.046234375000001
30
0
42
0.6524219225059988
0
VERTEX
8
0
10
20.4724
20
-12.353765625000001
30
0
0
VERTEX
8
0
10
20.4724
20
-11.43
30
0
42
0.19891236737965798
0
VERTEX
8
0
10
20.4277625
20
-11.3222375
30
0
0
VERTEX
8
0
10
14.1224
20
-5.016875000000001
30
0
0
VERTEX
8
0
10
14.1224
20
13.906875000000001
30
0
0
VERTEX
8
0
10
47.0977625
20
46.8822375
30
0
42
0.19891236737965798
0
VERTEX
8
0
10
47.1424
20
46.99
30
0
0
VERTEX
8
0
10
47.1424
20
65.976875
30
0
0
VERTEX
8
0
10
63.6077625
20
82.4422375
30
0
42
0.19891236737965798
0
VERTEX
8
0
10
63.6524
20
82.55
30
0
0
VERTEX
8
0
10
63.6524
20
100.266875
30
0
0
VERTEX
8
0
10
81.38776250000001
20
118.0022375
30
0
42
0.19891236737965798
0
VERTEX
8
0
10
81.4324
20
118.11
30
0
0
VERTEX
8
0
10
81.4324
20
134.55687500000002
30
0
0
VERTEX
8
0
10
97.8977625
20
151.02223750000002
30
0
42
0.19891236737965798
0
VERTEX
8
0
10
97.9424
20
151.13
30
0
0
VERTEX
8
0
10
97.9424
20
168.846875
30
0
0
VERTEX
8
0
10
102.933125
20
173.8376
30
0
0
VERTEX
8
0
10
109.156875
20
173.8376
30
0
0
VERTEX
8
0
10
110.33760000000001
20
172.656875
30
0
0
VERTEX
8
0
10
110.33760000000001
20
171.45000000000002
30
0
42
0.19891236737965798
0
VERTEX
8
0
10
110.3822375
20
171.3422375
30
0
0
VERTEX
8
0
10
111.01310000000001
20
170.711375
30
0
0
VERTEX
8
0
10
111.01310000000001
20
170.51405
30
0
0
VERTEX
8
0
10
112.6777
20
170.51405
30
0
0
VERTEX
8
0
10
112.6777
20
171.11595
30
0
0
VERTEX
8
0
10
111.039575
20
171.11595
30
0
0
VERTEX
8
0
10
110.64240000000001
20
171.513125
30
0
0
VERTEX
8
0
10
110.64240000000001
20
172.72
30
0
42
0.19891236737965798
0
VERTEX
8
0
10
110.5977625
20
172.8277625
30
0
0
VERTEX
8
0
10
109.3277625
20
174.09776250000002
30
0
42
0.19891236737965798
0
VERTEX
8
0
10
109.22
20
174.1424
30
0
0
VERTEX
8
0
10
102.87
20
174.1424
30
0
42
0.19891236737965798
0
VERTEX
8
0
10
102.76223750000001
20
174.09776250000002
30
0
0
VERTEX
8
0
10
97.6822375
20
169.0177625
30
0
42
0.19891236737965798
0
VERTEX
8
0
10
97.6376
20
168.91
30
0
0
VERTEX
8
0
10
97.6376
20
151.193125
30
0
0
VERTEX
8
0
10
81.17223750000001
20
134.7277625
30
0
42
0.19891236737965798
0
VERTEX
8
0
10
81.1276
20
134.62
30
0
0
VERTEX
8
0
10
81.1276
20
118.173125
30
0
0
VERTEX
8
0
10
63.3922375
20
100.4377625
30
0
42
0.19891236737965798
0
VERTEX
8
0
10
63.3476
20
100.33
30
0
0
VERTEX
8
0
10
63.3476
20
82.61312500000001
30
0
0
VERTEX
8
0
10
46.8822375
20
66.1477625
30
0
42
0.19891236737965798
0
VERTEX
8
0
10
46.8376
20
66.04
30
0
0
VERTEX
8
0
10
46.8376
20
47.053125
30
0
0
VERTEX
8
0
10
13.8622375
20
14.0777625
30
0
42
0.19891236737965798
0
VERTEX
8
0
10
13.8176
20
13.97
30
0
0
VERTEX
8
0
10
13.8176
20
-5.08
30
0
42
0.19891236737965798
0
VERTEX
8
0
10
13.8622375
20
-5.1877625
30
0
0
VERTEX
8
0
10
20.1676
20
-11.493125000000001
30
0
0
VERTEX
8
0
10
20.1676
20
-12.353765625000001
30
0
42
0.6524219225059988
0
VERTEX
8
0
10
20.1676
20
-13.046234375000001
30
0
0
VERTEX
8
0
10
20.1676
20
-13.8
30
0
0
VERTEX
8
0
10
19.82
20
-13.8
30
0
0
VERTEX
8
0
10
19.82
20
-17.55
30
0
0
VERTEX
8
0
10
20.82
20
-17.55
30
0
0
SEQEND
0
POLYLINE
66
1
8
1_copper
10
0.0
20
0.0
30
0.0
70
1
0
VERTEX
8
0
10
28.013940625
20
-4.181728125
30
0
42
0.4662697542730613
0
VERTEX
8
0
10
28.2925875
20
-3.6729375
30
0
0
VERTEX
8
0
10
28.953125
20
-3.0124
30
0
0
VERTEX
8
0
10
29.950000000000003
20
-3.0124
30
0
0
VERTEX
8
0
10
29.950000000000003
20
-3.3600000000000003
30
0
0
VERTEX
8
0
10
31.35
20
-3.3600000000000003
30
0
0
VERTEX
8
0
10
31.35
20
-2.3600000000000003
30
0
0
VERTEX
8
0
10
29.950000000000003
20
-2.3600000000000003
30
0
0
VERTEX
8
0
10
29.950000000000003
20
-2.7076000000000002
30
0
0
VERTEX
8
0
10
28.89
20
-2.7076000000000002
30
0
42
0.19891236737965798
0
VERTEX
8
0
10
28.7822375
20
-2.7522375
30
0
0
VERTEX
8
0
10
28.0770625
20
-3.4574125
30
0
0
VERTEX
8
0
10
28.061828125
20
-3.4511031250000004
30
0
0
VERTEX
8
0
10
28.013940625
20
-3.4382718750000003
30
0
0
VERTEX
8
0
10
27.9647875
20
-3.4318
30
0
0
VERTEX
8
0
10
27.915212500000003
20
-3.4318
30
0
0
VERTEX
8
0
10
27.866059375000003
20
-3.4382718750000003
30
0
0
VERTEX
8
0
10
27.818171875
20
-3.4511031250000004
30
0
0
VERTEX
8
0
10
27.772368750000002
20
-3.470075
30
0
0
VERTEX
8
0
10
27.72943125
20
-3.4948625
30
0
0
VERTEX
8
0
10
27.6901
20
-3.52504375
30
0
0
VERTEX
8
0
10
27.65504375
20
-3.5601000000000003
30
0
0
VERTEX
8
0
10
27.624862500000003
20
-3.5994312500000003
30
0
0
VERTEX
8
0
10
27.600075
20
-3.64236875
30
0
0
VERTEX
8
0
10
27.581103125000002
20
-3.688171875
30
0
0
VERTEX
8
0
10
27.568271875
20
-3.736059375
30
0
0
VERTEX
8
0
10
27.5618
20
-3.7852125
30
0
0
VERTEX
8
0
10
27.5618
20
-3.8347875
30
0
0
VERTEX
8
0
10
27.568271875
20
-3.883940625
30
0
0
VERTEX
8
0
10
27.581103125000002
20
-3.931828125
30
0
0
VERTEX
8
0
10
27.600075
20
-3.9776312500000004
30
0
0
VERTEX
8
0
10
27.624862500000003
20
-4.02056875
30
0
0
VERTEX
8
0
10
27.65504375
20
-4.0599
30
0
0
VERTEX
8
0
10
27.6901
20
-4.09495625
30
0
0
VERTEX
8
0
10
27.72943125
20
-4.1251375
30
0
0
VERTEX
8
0
10
27.772368750000002
20
-4.1499250000000005
30
0
0
VERTEX
8
0
10
27.818171875
20
-4.168896875000001
30
0
0
VERTEX
8
0
10
27.866059375000003
20
-4.181728125
30
0
0
VERTEX
8
0
10
27.915212500000003
20
-4.1882
30
0
0
VERTEX
8
0
10
27.9647875
20
-4.1882
30
0
0
SEQEND
0
POLYLINE
66
1
8
1_copper
10
0.0
20
0.0
30
0.0
70
1
0
VERTEX
8
0
10
33.093940625
20
-19.421728125
30
0
42
0.7331815214692624
0
VERTEX
8
0
10
33.1724
20
-18.703765625000003
30
0
0
VERTEX
8
0
10
33.1724
20
-17.55
30
0
0
VERTEX
8
0
10
33.52
20
-17.55
30
0
0
VERTEX
8
0
10
33.52
20
-13.8
30
0
0
VERTEX
8
0
10
32.52
20
-13.8
30
0
0
VERTEX
8
0
10
32.52
20
-17.55
30
0
0
VERTEX
8
0
10
32.8676
20
-17.55
30
0
0
VERTEX
8
0
10
32.8676
20
-18.703765625000003
30
0
0
VERTEX
8
0
10
32.852368750000004
20
-18.710075
30
0
0
VERTEX
8
0
10
32.80943125
20
-18.734862500000002
30
0
0
VERTEX
8
0
10
32.7701
20
-18.76504375
30
0
0
VERTEX
8
0
10
32.73504375
20
-18.8001
30
0
0
VERTEX
8
0
10
32.704862500000004
20
-18.83943125
30
0
0
VERTEX
8
0
10
32.680075
20
-18.88236875
30
0
0
VERTEX
8
0
10
32.661103125000004
20
-18.928171875
30
0
0
VERTEX
8
0
10
32.648271875
20
-18.976059375000002
30
0
0
VERTEX
8
0
10
32.6418
20
-19.025212500000002
30
0
0
VERTEX
8
0
10
32.6418
20
-19.0747875
30
0
0
VERTEX
8
0
10
32.648271875
20
-19.123940625
30
0
0
VERTEX
8
0
10
32.661103125000004
20
-19.171828125
30
0
0
VERTEX
8
0
10
32.680075
20
-19.21763125
30
0
0
VERTEX
8
0
10
32.704862500000004
20
-19.26056875
30
0
0
VERTEX
8
0
10
32.73504375
20
-19.2999
30
0
0
VERTEX
8
0
10
32.7701
20
-19.33495625
30
0
0
VERTEX
8
0
10
32.80943125
20
-19.3651375
30
0
0
VERTEX
8
0
10
32.852368750000004
20
-19.389925
30
0
0
VERTEX
8
0
10
32.898171875
20
-19.408896875
30
0
0
VERTEX
8
0
10
32.946059375000004
20
-19.421728125
30
0
0
VERTEX
8
0
10
32.9952125
20
-19.4282
30
0
0
VERTEX
8
0
10
33.0447875
20
-19.4282
30
0
0
SEQEND
0
POLYLINE
66
1
8
16_copper
10
0.0
20
0.0
30
0.0
70
1
0
VERTEX
8
0
10
28.0924
20
-4.156234375
30
0
42
0.9572289051629038
0
VERTEX
8
0
10
27.818171875
20
-3.4511031250000004
30
0
0
VERTEX
8
0
10
27.772368750000002
20
-3.470075
30
0
42
0.6370260012064161
0
VERTEX
8
0
10
27.7876
20
-4.156234375
30
0
0
VERTEX
8
0
10
27.7876
20
-5.08
30
0
42
0.19891236737965798
0
VERTEX
8
0
10
27.8322375
20
-5.1877625
30
0
0
VERTEX
8
0
10
34.1376
20
-11.493125000000001
30
0
0
VERTEX
8
0
10
34.1376
20
-21.091875
30
0
0
VERTEX
8
0
10
33.52
20
-21.709475
30
0
0
VERTEX
8
0
10
33.52
20
-20.55
30
0
0
VERTEX
8
0
10
33.1724
20
-20.55
30
0
0
VERTEX
8
0
10
33.1724
20
-19.396234375000002
30
0
42
0.9572289051629038
0
VERTEX
8
0
10
32.898171875
20
-18.691103125
30
0
0
VERTEX
8
0
10
32.852368750000004
20
-18.710075
30
0
42
0.6370260012064161
0
VERTEX
8
0
10
32.8676
20
-19.396234375000002
30
0
0
VERTEX
8
0
10
32.8676
20
-20.55
30
0
0
VERTEX
8
0
10
32.52
20
-20.55
30
0
0
VERTEX
8
0
10
32.52
20
-24.3
30
0
0
VERTEX
8
0
10
33.52
20
-24.3
30
0
0
VERTEX
8
0
10
33.52
20
-22.140525
30
0
0
VERTEX
8
0
10
34.3977625
20
-21.2627625
30
0
42
0.19891236737965798
0
VERTEX
8
0
10
34.4424
20
-21.155
30
0
0
VERTEX
8
0
10
34.4424
20
-11.43
30
0
42
0.19891236737965798
0
VERTEX
8
0
10
34.3977625
20
-11.3222375
30
0
0
VERTEX
8
0
10
28.0924
20
-5.016875000000001
30
0
0
SEQEND
0
POLYLINE
66
1
8
1_copper
10
0.0
20
0.0
30
0.0
70
1
0
VERTEX
8
0
10
41.983940625
20
30.108271875
30
0
42
0.4662697542730613
0
VERTEX
8
0
10
42.2625875
20
30.617062500000003
30
0
0
VERTEX
8
0
10
42.923125
20
31.277600000000003
30
0
0
VERTEX
8
0
10
43.92
20
31.277600000000003
30
0
0
VERTEX
8
0
10
43.92
20
30.93
30
0
0
VERTEX
8
0
10
45.32
20
30.93
30
0
0
VERTEX
8
0
10
45.32
20
31.930000000000003
30
0
0
VERTEX
8
0
10
43.92
20
31.930000000000003
30
0
0
VERTEX
8
0
10
43.92
20
31.5824
30
0
0
VERTEX
8
0
10
42.86
20
31.5824
30
0
42
0.19891236737965798
0
VERTEX
8
0
10
42.7522375
20
31.537762500000003
30
0
0
VERTEX
8
0
10
42.0470625
20
30.832587500000002
30
0
0
VERTEX
8
0
10
42.031828125000004
20
30.838896875000003
30
0
0
VERTEX
8
0
10
41.983940625
20
30.851728125
30
0
0
VERTEX
8
0
10
41.9347875
20
30.8582
30
0
0
VERTEX
8
0
10
41.8852125
20
30.8582
30
0
0
VERTEX
8
0
10
41.836059375000005
20
30.851728125
30
0
0
VERTEX
8
0
10
41.788171875
20
30.838896875000003
30
0
0
VERTEX
8
0
10
41.742368750000004
20
30.819925
30
0
0
VERTEX
8
0
10
41.69943125
20
30.795137500000003
30
0
0
VERTEX
8
0
10
41.6601
20
30.76495625
30
0
0
VERTEX
8
0
10
41.62504375
20
30.7299
30
0
0
VERTEX
8
0
10
41.594862500000005
20
30.69056875
30
0
0
VERTEX
8
0
10
41.570075
20
30.64763125
30
0
0
VERTEX
8
0
10
41.551103125000004
20
30.601828125
30
0
0
VERTEX
8
0
10
41.538271875
20
30.553940625000003
30
0
0
VERTEX
8
0
10
41.531800000000004
20
30.504787500000003
30
0
0
VERTEX
8
0
10
41.531800000000004
20
30.455212500000002
30
0
0
VERTEX
8
0
10
41.538271875
20
30.406059375
30
0
0
VERTEX
8
0
10
41.551103125000004
20
30.358171875
30
0
0
VERTEX
8
0
10
41.570075
20
30.31236875
30
0
0
VERTEX
8
0
10
41.594862500000005
20
30.26943125
30
0
0
VERTEX
8
0
10
41.62504375
20
30.2301
30
0
0
VERTEX
8
0
10
41.6601
20
30.19504375
30
0
0
VERTEX
8
0
10
41.69943125
20
30.1648625
30
0
0
VERTEX
8
0
10
41.742368750000004
20
30.140075000000003
30
0
0
VERTEX
8
0
10
41.788171875
20
30.121103125
30
0
0
VERTEX
8
0
10
41.836059375000005
20
30.108271875
30
0
0
VERTEX
8
0
10
41.8852125
20
30.1018
30
0
0
VERTEX
8
0
10
41.9347875
20
30.1018
30
0
0
SEQEND
0
POLYLINE
66
1
8
1_copper
10
0.0
20
0.0
30
0.0
70
1
0
VERTEX
8
0
10
30.553940625000003
20
-19.421728125
30
0
42
0.7331815214692624
0
VERTEX
8
0
10
30.6324
20
-18.703765625000003
30
0
0
VERTEX
8
0
10
30.6324
20
-17.55
30
0
0
VERTEX
8
0
10
30.98
20
-17.55
30
0
0
VERTEX
8
0
10
30.98
20
-13.8
30
0
0
VERTEX
8
0
10
29.98
20
-13.8
30
0
0
VERTEX
8
0
10
29.98
20
-17.55
30
0
0
VERTEX
8
0
10
30.3276
20
-17.55
30
0
0
VERTEX
8
0
10
30.3276
20
-18.703765625000003
30
0
0
VERTEX
8
0
10
30.31236875
20
-18.710075
30
0
0
VERTEX
8
0
10
30.26943125
20
-18.734862500000002
30
0
0
VERTEX
8
0
10
30.2301
20
-18.76504375
30
0
0
VERTEX
8
0
10
30.19504375
20
-18.8001
30
0
0
VERTEX
8
0
10
30.1648625
20
-18.83943125
30
0
0
VERTEX
8
0
10
30.140075000000003
20
-18.88236875
30
0
0
VERTEX
8
0
10
30.121103125
20
-18.928171875
30
0
0
VERTEX
8
0
10
30.108271875
20
-18.976059375000002
30
0
0
VERTEX
8
0
10
30.1018
20
-19.025212500000002
30
0
0
VERTEX
8
0
10
30.1018
20
-19.0747875
30
0
0
VERTEX
8
0
10
30.108271875
20
-19.123940625
30
0
0
VERTEX
8
0
10
30.121103125
20
-19.171828125
30
0
0
VERTEX
8
0
10
30.140075000000003
20
-19.21763125
30
0
0
VERTEX
8
0
10
30.1648625
20
-19.26056875
30
0
0
VERTEX
8
0
10
30.19504375
20
-19.2999
30
0
0
VERTEX
8
0
10
30.2301
20
-19.33495625
30
0
0
VERTEX
8
0
10
30.26943125
20
-19.3651375
30
0
0
VERTEX
8
0
10
30.31236875
20
-19.389925
30
0
0
VERTEX
8
0
10
30.358171875
20
-19.408896875
30
0
0
VERTEX
8
0
10
30.406059375
20
-19.421728125
30
0
0
VERTEX
8
0
10
30.455212500000002
20
-19.4282
30
0
0
VERTEX
8
0
10
30.504787500000003
20
-19.4282
30
0
0
SEQEND
0
POLYLINE
66
1
8
16_copper
10
0.0
20
0.0
30
0.0
70
1
0
VERTEX
8
0
10
30.98
20
-22.140525
30
0
0
VERTEX
8
0
10
31.8577625
20
-21.2627625
30
0
42
0.19891236737965798
0
VERTEX
8
0
10
31.9024
20
-21.155
30
0
0
VERTEX
8
0
10
31.9024
20
-11.43
30
0
42
0.19891236737965798
0
VERTEX
8
0
10
31.8577625
20
-11.3222375
30
0
0
VERTEX
8
0
10
25.552400000000002
20
-5.016875000000001
30
0
0
VERTEX
8
0
10
25.552400000000002
20
13.906875000000001
30
0
0
VERTEX
8
0
10
41.772937500000005
20
30.127412500000002
30
0
42
0.9572325849358252
0
VERTEX
8
0
10
42.07763125
20
30.819925
30
0
0
VERTEX
8
0
10
42.031828125000004
20
30.838896875000003
30
0
42
0.6370250255407952
0
VERTEX
8
0
10
41.557412500000005
20
30.3429375
30
0
0
VERTEX
8
0
10
25.292237500000002
20
14.0777625
30
0
42
0.19891236737965798
0
VERTEX
8
0
10
25.247600000000002
20
13.97
30
0
0
VERTEX
8
0
10
25.247600000000002
20
-5.08
30
0
42
0.19891236737965798
0
VERTEX
8
0
10
25.292237500000002
20
-5.1877625
30
0
0
VERTEX
8
0
10
31.5976
20
-11.493125000000001
30
0
0
VERTEX
8
0
10
31.5976
20
-21.091875
30
0
0
VERTEX
8
0
10
30.98
20
-21.709475
30
0
0
VERTEX
8
0
10
30.98
20
-20.55
30
0
0
VERTEX
8
0
10
30.6324
20
-20.55
30
0
0
VERTEX
8
0
10
30.6324
20
-19.396234375000002
30
0
42
0.9572289051629038
0
VERTEX
8
0
10
30.358171875
20
-18.691103125
30
0
0
VERTEX
8
0
10
30.31236875
20
-18.710075
30
0
42
0.6370260012064161
0
VERTEX
8
0
10
30.3276
20
-19.396234375000002
30
0
0
VERTEX
8
0
10
30.3276
20
-20.55
30
0
0
VERTEX
8
0
10
29.98
20
-20.55
30
0
0
VERTEX
8
0
10
29.98
20
-24.3
30
0
0
VERTEX
8
0
10
30.98
20
-24.3
30
0
0
SEQEND
0
POLYLINE
66
1
8
1_copper
10
0.0
20
0.0
30
0.0
70
1
0
VERTEX
8
0
10
55.953940625
20
64.398271875
30
0
42
0.4662697542730613
0
VERTEX
8
0
10
56.2325875
20
64.90706250000001
30
0
0
VERTEX
8
0
10
56.893125000000005
20
65.5676
30
0
0
VERTEX
8
0
10
59.160000000000004
20
65.5676
30
0
0
VERTEX
8
0
10
59.160000000000004
20
65.22
30
0
0
VERTEX
8
0
10
60.56
20
65.22
30
0
0
VERTEX
8
0
10
60.56
20
66.22
30
0
0
VERTEX
8
0
10
59.160000000000004
20
66.22
30
0
0
VERTEX
8
0
10
59.160000000000004
20
65.8724
30
0
0
VERTEX
8
0
10
56.830000000000005
20
65.8724
30
0
42
0.19891236737965798
0
VERTEX
8
0
10
56.722237500000006
20
65.8277625
30
0
0
VERTEX
8
0
10
56.0170625
20
65.12258750000001
30
0
0
VERTEX
8
0
10
56.001828125
20
65.12889687500001
30
0
0
VERTEX
8
0
10
55.953940625
20
65.141728125
30
0
0
VERTEX
8
0
10
55.904787500000005
20
65.1482
30
0
0
VERTEX
8
0
10
55.8552125
20
65.1482
30
0
0
VERTEX
8
0
10
55.806059375000004
20
65.141728125
30
0
0
VERTEX
8
0
10
55.758171875
20
65.12889687500001
30
0
0
VERTEX
8
0
10
55.71236875
20
65.109925
30
0
0
VERTEX
8
0
10
55.66943125
20
65.0851375
30
0
0
VERTEX
8
0
10
55.630100000000006
20
65.05495625
30
0
0
VERTEX
8
0
10
55.59504375
20
65.0199
30
0
0
VERTEX
8
0
10
55.564862500000004
20
64.98056875
30
0
0
VERTEX
8
0
10
55.540075
20
64.93763125000001
30
0
0
VERTEX
8
0
10
55.521103125
20
64.891828125
30
0
0
VERTEX
8
0
10
55.508271875000005
20
64.843940625
30
0
0
VERTEX
8
0
10
55.5018
20
64.7947875
30
0
0
VERTEX
8
0
10
55.5018
20
64.74521250000001
30
0
0
VERTEX
8
0
10
55.508271875000005
20
64.696059375
30
0
0
VERTEX
8
0
10
55.521103125
20
64.648171875
30
0
0
VERTEX
8
0
10
55.540075
20
64.60236875
30
0
0
VERTEX
8
0
10
55.564862500000004
20
64.55943125
30
0
0
VERTEX
8
0
10
55.59504375
20
64.5201
30
0
0
VERTEX
8
0
10
55.630100000000006
20
64.48504375
30
0
0
VERTEX
8
0
10
55.66943125
20
64.4548625
30
0
0
VERTEX
8
0
10
55.71236875
20
64.430075
30
0
0
VERTEX
8
0
10
55.758171875
20
64.411103125
30
0
0
VERTEX
8
0
10
55.806059375000004
20
64.398271875
30
0
0
VERTEX
8
0
10
55.8552125
20
64.3918
30
0
0
VERTEX
8
0
10
55.904787500000005
20
64.3918
30
0
0
SEQEND
0
POLYLINE
66
1
8
1_copper
10
0.0
20
0.0
30
0.0
70
1
0
VERTEX
8
0
10
28.013940625
20
-19.421728125
30
0
42
0.7331815214692624
0
VERTEX
8
0
10
28.0924
20
-18.703765625000003
30
0
0
VERTEX
8
0
10
28.0924
20
-17.55
30
0
0
VERTEX
8
0
10
28.44
20
-17.55
30
0
0
VERTEX
8
0
10
28.44
20
-13.8
30
0
0
VERTEX
8
0
10
27.44
20
-13.8
30
0
0
VERTEX
8
0
10
27.44
20
-17.55
30
0
0
VERTEX
8
0
10
27.7876
20
-17.55
30
0
0
VERTEX
8
0
10
27.7876
20
-18.703765625000003
30
0
0
VERTEX
8
0
10
27.772368750000002
20
-18.710075
30
0
0
VERTEX
8
0
10
27.72943125
20
-18.734862500000002
30
0
0
VERTEX
8
0
10
27.6901
20
-18.76504375
30
0
0
VERTEX
8
0
10
27.65504375
20
-18.8001
30
0
0
VERTEX
8
0
10
27.624862500000003
20
-18.83943125
30
0
0
VERTEX
8
0
10
27.600075
20
-18.88236875
30
0
0
VERTEX
8
0
10
27.581103125000002
20
-18.928171875
30
0
0
VERTEX
8
0
10
27.568271875
20
-18.976059375000002
30
0
0
VERTEX
8
0
10
27.5618
20
-19.025212500000002
30
0
0
VERTEX
8
0
10
27.5618
20
-19.0747875
30
0
0
VERTEX
8
0
10
27.568271875
20
-19.123940625
30
0
0
VERTEX
8
0
10
27.581103125000002
20
-19.171828125
30
0
0
VERTEX
8
0
10
27.600075
20
-19.21763125
30
0
0
VERTEX
8
0
10
27.624862500000003
20
-19.26056875
30
0
0
VERTEX
8
0
10
27.65504375
20
-19.2999
30
0
0
VERTEX
8
0
10
27.6901
20
-19.33495625
30
0
0
VERTEX
8
0
10
27.72943125
20
-19.3651375
30
0
0
VERTEX
8
0
10
27.772368750000002
20
-19.389925
30
0
0
VERTEX
8
0
10
27.818171875
20
-19.408896875
30
0
0
VERTEX
8
0
10
27.866059375000003
20
-19.421728125
30
0
0
VERTEX
8
0
10
27.915212500000003
20
-19.4282
30
0
0
VERTEX
8
0
10
27.9647875
20
-19.4282
30
0
0
SEQEND
0
POLYLINE
66
1
8
16_copper
10
0.0
20
0.0
30
0.0
70
1
0
VERTEX
8
0
10
28.44
20
-22.140525
30
0
0
VERTEX
8
0
10
29.3177625
20
-21.2627625
30
0
42
0.19891236737965798
0
VERTEX
8
0
10
29.3624
20
-21.155
30
0
0
VERTEX
8
0
10
29.3624
20
-11.43
30
0
42
0.19891236737965798
0
VERTEX
8
0
10
29.3177625
20
-11.3222375
30
0
0
VERTEX
8
0
10
23.0124
20
-5.016875000000001
30
0
0
VERTEX
8
0
10
23.0124
20
13.906875000000001
30
0
0
VERTEX
8
0
10
55.9877625
20
46.8822375
30
0
42
0.19891236737965798
0
VERTEX
8
0
10
56.0324
20
46.99
30
0
0
VERTEX
8
0
10
56.0324
20
64.423765625
30
0
42
0.9572289051629038
0
VERTEX
8
0
10
55.758171875
20
65.12889687500001
30
0
0
VERTEX
8
0
10
55.71236875
20
65.109925
30
0
42
0.6370260012064161
0
VERTEX
8
0
10
55.7276
20
64.423765625
30
0
0
VERTEX
8
0
10
55.7276
20
47.053125
30
0
0
VERTEX
8
0
10
22.7522375
20
14.0777625
30
0
42
0.19891236737965798
0
VERTEX
8
0
10
22.7076
20
13.97
30
0
0
VERTEX
8
0
10
22.7076
20
-5.08
30
0
42
0.19891236737965798
0
VERTEX
8
0
10
22.7522375
20
-5.1877625
30
0
0
VERTEX
8
0
10
29.0576
20
-11.493125000000001
30
0
0
VERTEX
8
0
10
29.0576
20
-21.091875
30
0
0
VERTEX
8
0
10
28.44
20
-21.709475
30
0
0
VERTEX
8
0
10
28.44
20
-20.55
30
0
0
VERTEX
8
0
10
28.0924
20
-20.55
30
0
0
VERTEX
8
0
10
28.0924
20
-19.396234375000002
30
0
42
0.9572289051629038
0
VERTEX
8
0
10
27.818171875
20
-18.691103125
30
0
0
VERTEX
8
0
10
27.772368750000002
20
-18.710075
30
0
42
0.6370260012064161
0
VERTEX
8
0
10
27.7876
20
-19.396234375000002
30
0
0
VERTEX
8
0
10
27.7876
20
-20.55
30
0
0
VERTEX
8
0
10
27.44
20
-20.55
30
0
0
VERTEX
8
0
10
27.44
20
-24.3
30
0
0
VERTEX
8
0
10
28.44
20
-24.3
30
0
0
SEQEND
0
POLYLINE
66
1
8
1_copper
10
0.0
20
0.0
30
0.0
70
1
0
VERTEX
8
0
10
99.13394062500001
20
167.268271875
30
0
42
0.4662697542730613
0
VERTEX
8
0
10
99.4125875
20
167.7770625
30
0
0
VERTEX
8
0
10
100.073125
20
168.4376
30
0
0
VERTEX
8
0
10
101.07000000000001
20
168.4376
30
0
0
VERTEX
8
0
10
101.07000000000001
20
168.09
30
0
0
VERTEX
8
0
10
102.47
20
168.09
30
0
0
VERTEX
8
0
10
102.47
20
169.09
30
0
0
VERTEX
8
0
10
101.07000000000001
20
169.09
30
0
0
VERTEX
8
0
10
101.07000000000001
20
168.7424
30
0
0
VERTEX
8
0
10
100.01
20
168.7424
30
0
42
0.19891236737965798
0
VERTEX
8
0
10
99.9022375
20
168.6977625
30
0
0
VERTEX
8
0
10
99.1970625
20
167.9925875
30
0
0
VERTEX
8
0
10
99.18182812500001
20
167.998896875
30
0
0
VERTEX
8
0
10
99.13394062500001
20
168.01172812500002
30
0
0
VERTEX
8
0
10
99.0847875
20
168.0182
30
0
0
VERTEX
8
0
10
99.0352125
20
168.0182
30
0
0
VERTEX
8
0
10
98.98605937500001
20
168.01172812500002
30
0
0
VERTEX
8
0
10
98.93817187500001
20
167.998896875
30
0
0
VERTEX
8
0
10
98.89236875
20
167.979925
30
0
0
VERTEX
8
0
10
98.84943125000001
20
167.9551375
30
0
0
VERTEX
8
0
10
98.8101
20
167.92495625
30
0
0
VERTEX
8
0
10
98.77504375000001
20
167.8899
30
0
0
VERTEX
8
0
10
98.74486250000001
20
167.85056875
30
0
0
VERTEX
8
0
10
98.72007500000001
20
167.80763125000001
30
0
0
VERTEX
8
0
10
98.701103125
20
167.761828125
30
0
0
VERTEX
8
0
10
98.688271875
20
167.71394062500002
30
0
0
VERTEX
8
0
10
98.68180000000001
20
167.66478750000002
30
0
0
VERTEX
8
0
10
98.68180000000001
20
167.6152125
30
0
0
VERTEX
8
0
10
98.688271875
20
167.566059375
30
0
0
VERTEX
8
0
10
98.701103125
20
167.518171875
30
0
0
VERTEX
8
0
10
98.72007500000001
20
167.47236875000002
30
0
0
VERTEX
8
0
10
98.74486250000001
20
167.42943125000002
30
0
0
VERTEX
8
0
10
98.77504375000001
20
167.39010000000002
30
0
0
VERTEX
8
0
10
98.8101
20
167.35504375000002
30
0
0
VERTEX
8
0
10
98.84943125000001
20
167.3248625
30
0
0
VERTEX
8
0
10
98.89236875
20
167.30007500000002
30
0
0
VERTEX
8
0
10
98.93817187500001
20
167.28110312500002
30
0
0
VERTEX
8
0
10
98.98605937500001
20
167.268271875
30
0
0
VERTEX
8
0
10
99.0352125
20
167.2618
30
0
0
VERTEX
8
0
10
99.0847875
20
167.2618
30
0
0
SEQEND
0
POLYLINE
66
1
8
1_copper
10
0.0
20
0.0
30
0.0
70
1
0
VERTEX
8
0
10
20.393940625000003
20
-19.421728125
30
0
42
0.7331815214692624
0
VERTEX
8
0
10
20.4724
20
-18.703765625000003
30
0
0
VERTEX
8
0
10
20.4724
20
-17.55
30
0
0
VERTEX
8
0
10
20.82
20
-17.55
30
0
0
VERTEX
8
0
10
20.82
20
-13.8
30
0
0
VERTEX
8
0
10
19.82
20
-13.8
30
0
0
VERTEX
8
0
10
19.82
20
-17.55
30
0
0
VERTEX
8
0
10
20.1676
20
-17.55
30
0
0
VERTEX
8
0
10
20.1676
20
-18.703765625000003
30
0
0
VERTEX
8
0
10
20.15236875
20
-18.710075
30
0
0
VERTEX
8
0
10
20.10943125
20
-18.734862500000002
30
0
0
VERTEX
8
0
10
20.0701
20
-18.76504375
30
0
0
VERTEX
8
0
10
20.03504375
20
-18.8001
30
0
0
VERTEX
8
0
10
20.0048625
20
-18.83943125
30
0
0
VERTEX
8
0
10
19.980075
20
-18.88236875
30
0
0
VERTEX
8
0
10
19.961103125
20
-18.928171875
30
0
0
VERTEX
8
0
10
19.948271875
20
-18.976059375000002
30
0
0
VERTEX
8
0
10
19.9418
20
-19.025212500000002
30
0
0
VERTEX
8
0
10
19.9418
20
-19.0747875
30
0
0
VERTEX
8
0
10
19.948271875
20
-19.123940625
30
0
0
VERTEX
8
0
10
19.961103125
20
-19.171828125
30
0
0
VERTEX
8
0
10
19.980075
20
-19.21763125
30
0
0
VERTEX
8
0
10
20.0048625
20
-19.26056875
30
0
0
VERTEX
8
0
10
20.03504375
20
-19.2999
30
0
0
VERTEX
8
0
10
20.0701
20
-19.33495625
30
0
0
VERTEX
8
0
10
20.10943125
20
-19.3651375
30
0
0
VERTEX
8
0
10
20.15236875
20
-19.389925
30
0
0
VERTEX
8
0
10
20.198171875
20
-19.408896875
30
0
0
VERTEX
8
0
10
20.246059375
20
-19.421728125
30
0
0
VERTEX
8
0
10
20.2952125
20
-19.4282
30
0
0
VERTEX
8
0
10
20.344787500000002
20
-19.4282
30
0
0
SEQEND
0
POLYLINE
66
1
8
16_copper
10
0.0
20
0.0
30
0.0
70
1
0
VERTEX
8
0
10
20.82
20
-22.140525
30
0
0
VERTEX
8
0
10
21.6977625
20
-21.2627625
30
0
42
0.19891236737965798
0
VERTEX
8
0
10
21.7424
20
-21.155
30
0
0
VERTEX
8
0
10
21.7424
20
-11.43
30
0
42
0.19891236737965798
0
VERTEX
8
0
10
21.6977625
20
-11.3222375
30
0
0
VERTEX
8
0
10
15.3924
20
-5.016875000000001
30
0
0
VERTEX
8
0
10
15.3924
20
13.906875000000001
30
0
0
VERTEX
8
0
10
48.367762500000005
20
46.8822375
30
0
42
0.19891236737965798
0
VERTEX
8
0
10
48.412400000000005
20
46.99
30
0
0
VERTEX
8
0
10
48.412400000000005
20
65.976875
30
0
0
VERTEX
8
0
10
64.8777625
20
82.4422375
30
0
42
0.19891236737965798
0
VERTEX
8
0
10
64.9224
20
82.55
30
0
0
VERTEX
8
0
10
64.9224
20
100.266875
30
0
0
VERTEX
8
0
10
82.6577625
20
118.0022375
30
0
42
0.19891236737965798
0
VERTEX
8
0
10
82.7024
20
118.11
30
0
0
VERTEX
8
0
10
82.7024
20
134.55687500000002
30
0
0
VERTEX
8
0
10
99.16776250000001
20
151.02223750000002
30
0
42
0.19891236737965798
0
VERTEX
8
0
10
99.2124
20
151.13
30
0
0
VERTEX
8
0
10
99.2124
20
167.29376562500002
30
0
42
0.9572289051629038
0
VERTEX
8
0
10
98.93817187500001
20
167.998896875
30
0
0
VERTEX
8
0
10
98.89236875
20
167.979925
30
0
42
0.6370260012064161
0
VERTEX
8
0
10
98.9076
20
167.29376562500002
30
0
0
VERTEX
8
0
10
98.9076
20
151.193125
30
0
0
VERTEX
8
0
10
82.4422375
20
134.7277625
30
0
42
0.19891236737965798
0
VERTEX
8
0
10
82.3976
20
134.62
30
0
0
VERTEX
8
0
10
82.3976
20
118.173125
30
0
0
VERTEX
8
0
10
64.6622375
20
100.4377625
30
0
42
0.19891236737965798
0
VERTEX
8
0
10
64.61760000000001
20
100.33
30
0
0
VERTEX
8
0
10
64.61760000000001
20
82.61312500000001
30
0
0
VERTEX
8
0
10
48.152237500000005
20
66.1477625
30
0
42
0.19891236737965798
0
VERTEX
8
0
10
48.107600000000005
20
66.04
30
0
0
VERTEX
8
0
10
48.107600000000005
20
47.053125
30
0
0
VERTEX
8
0
10
15.1322375
20
14.0777625
30
0
42
0.19891236737965798
0
VERTEX
8
0
10
15.0876
20
13.97
30
0
0
VERTEX
8
0
10
15.0876
20
-5.08
30
0
42
0.19891236737965798
0
VERTEX
8
0
10
15.1322375
20
-5.1877625
30
0
0
VERTEX
8
0
10
21.4376
20
-11.493125000000001
30
0
0
VERTEX
8
0
10
21.4376
20
-21.091875
30
0
0
VERTEX
8
0
10
20.82
20
-21.709475
30
0
0
VERTEX
8
0
10
20.82
20
-20.55
30
0
0
VERTEX
8
0
10
20.4724
20
-20.55
30
0
0
VERTEX
8
0
10
20.4724
20
-19.396234375000002
30
0
42
0.9572289051629038
0
VERTEX
8
0
10
20.198171875
20
-18.691103125
30
0
0
VERTEX
8
0
10
20.15236875
20
-18.710075
30
0
42
0.6370260012064161
0
VERTEX
8
0
10
20.1676
20
-19.396234375000002
30
0
0
VERTEX
8
0
10
20.1676
20
-20.55
30
0
0
VERTEX
8
0
10
19.82
20
-20.55
30
0
0
VERTEX
8
0
10
19.82
20
-24.3
30
0
0
VERTEX
8
0
10
20.82
20
-24.3
30
0
0
SEQEND
0
POLYLINE
66
1
8
1_copper
10
0.0
20
0.0
30
0.0
70
1
0
VERTEX
8
0
10
85.16394062500001
20
132.97827187500002
30
0
42
0.4662697542730613
0
VERTEX
8
0
10
85.4425875
20
133.4870625
30
0
0
VERTEX
8
0
10
86.103125
20
134.1476
30
0
0
VERTEX
8
0
10
87.10000000000001
20
134.1476
30
0
0
VERTEX
8
0
10
87.10000000000001
20
133.8
30
0
0
VERTEX
8
0
10
88.5
20
133.8
30
0
0
VERTEX
8
0
10
88.5
20
134.8
30
0
0
VERTEX
8
0
10
87.10000000000001
20
134.8
30
0
0
VERTEX
8
0
10
87.10000000000001
20
134.4524
30
0
0
VERTEX
8
0
10
86.04
20
134.4524
30
0
42
0.19891236737965798
0
VERTEX
8
0
10
85.9322375
20
134.40776250000002
30
0
0
VERTEX
8
0
10
85.2270625
20
133.7025875
30
0
0
VERTEX
8
0
10
85.21182812500001
20
133.708896875
30
0
0
VERTEX
8
0
10
85.16394062500001
20
133.721728125
30
0
0
VERTEX
8
0
10
85.1147875
20
133.72820000000002
30
0
0
VERTEX
8
0
10
85.0652125
20
133.72820000000002
30
0
0
VERTEX
8
0
10
85.016059375
20
133.721728125
30
0
0
VERTEX
8
0
10
84.96817187500001
20
133.708896875
30
0
0
VERTEX
8
0
10
84.92236875
20
133.68992500000002
30
0
0
VERTEX
8
0
10
84.87943125000001
20
133.66513750000001
30
0
0
VERTEX
8
0
10
84.8401
20
133.63495625000002
30
0
0
VERTEX
8
0
10
84.80504375000001
20
133.59990000000002
30
0
0
VERTEX
8
0
10
84.7748625
20
133.56056875000002
30
0
0
VERTEX
8
0
10
84.75007500000001
20
133.51763125
30
0
0
VERTEX
8
0
10
84.731103125
20
133.471828125
30
0
0
VERTEX
8
0
10
84.718271875
20
133.423940625
30
0
0
VERTEX
8
0
10
84.71180000000001
20
133.3747875
30
0
0
VERTEX
8
0
10
84.71180000000001
20
133.32521250000002
30
0
0
VERTEX
8
0
10
84.718271875
20
133.27605937500002
30
0
0
VERTEX
8
0
10
84.731103125
20
133.22817187500002
30
0
0
VERTEX
8
0
10
84.75007500000001
20
133.18236875
30
0
0
VERTEX
8
0
10
84.7748625
20
133.13943125
30
0
0
VERTEX
8
0
10
84.80504375000001
20
133.1001
30
0
0
VERTEX
8
0
10
84.8401
20
133.06504375
30
0
0
VERTEX
8
0
10
84.87943125000001
20
133.0348625
30
0
0
VERTEX
8
0
10
84.92236875
20
133.010075
30
0
0
VERTEX
8
0
10
84.96817187500001
20
132.991103125
30
0
0
VERTEX
8
0
10
85.016059375
20
132.97827187500002
30
0
0
VERTEX
8
0
10
85.0652125
20
132.9718
30
0
0
VERTEX
8
0
10
85.1147875
20
132.9718
30
0
0
SEQEND
0
POLYLINE
66
1
8
1_copper
10
0.0
20
0.0
30
0.0
70
1
0
VERTEX
8
0
10
22.933940625
20
-19.421728125
30
0
42
0.7331815214692624
0
VERTEX
8
0
10
23.0124
20
-18.703765625000003
30
0
0
VERTEX
8
0
10
23.0124
20
-17.55
30
0
0
VERTEX
8
0
10
23.36
20
-17.55
30
0
0
VERTEX
8
0
10
23.36
20
-13.8
30
0
0
VERTEX
8
0
10
22.36
20
-13.8
30
0
0
VERTEX
8
0
10
22.36
20
-17.55
30
0
0
VERTEX
8
0
10
22.7076
20
-17.55
30
0
0
VERTEX
8
0
10
22.7076
20
-18.703765625000003
30
0
0
VERTEX
8
0
10
22.69236875
20
-18.710075
30
0
0
VERTEX
8
0
10
22.649431250000003
20
-18.734862500000002
30
0
0
VERTEX
8
0
10
22.610100000000003
20
-18.76504375
30
0
0
VERTEX
8
0
10
22.575043750000003
20
-18.8001
30
0
0
VERTEX
8
0
10
22.5448625
20
-18.83943125
30
0
0
VERTEX
8
0
10
22.520075000000002
20
-18.88236875
30
0
0
VERTEX
8
0
10
22.501103125
20
-18.928171875
30
0
0
VERTEX
8
0
10
22.488271875000002
20
-18.976059375000002
30
0
0
VERTEX
8
0
10
22.4818
20
-19.025212500000002
30
0
0
VERTEX
8
0
10
22.4818
20
-19.0747875
30
0
0
VERTEX
8
0
10
22.488271875000002
20
-19.123940625
30
0
0
VERTEX
8
0
10
22.501103125
20
-19.171828125
30
0
0
VERTEX
8
0
10
22.520075000000002
20
-19.21763125
30
0
0
VERTEX
8
0
10
22.5448625
20
-19.26056875
30
0
0
VERTEX
8
0
10
22.575043750000003
20
-19.2999
30
0
0
VERTEX
8
0
10
22.610100000000003
20
-19.33495625
30
0
0
VERTEX
8
0
10
22.649431250000003
20
-19.3651375
30
0
0
VERTEX
8
0
10
22.69236875
20
-19.389925
30
0
0
VERTEX
8
0
10
22.738171875000003
20
-19.408896875
30
0
0
VERTEX
8
0
10
22.786059375
20
-19.421728125
30
0
0
VERTEX
8
0
10
22.8352125
20
-19.4282
30
0
0
VERTEX
8
0
10
22.8847875
20
-19.4282
30
0
0
SEQEND
0
POLYLINE
66
1
8
16_copper
10
0.0
20
0.0
30
0.0
70
1
0
VERTEX
8
0
10
23.36
20
-22.140525
30
0
0
VERTEX
8
0
10
24.237762500000002
20
-21.2627625
30
0
42
0.19891236737965798
0
VERTEX
8
0
10
24.282400000000003
20
-21.155
30
0
0
VERTEX
8
0
10
24.282400000000003
20
-11.43
30
0
42
0.19891236737965798
0
VERTEX
8
0
10
24.237762500000002
20
-11.3222375
30
0
0
VERTEX
8
0
10
17.9324
20
-5.016875000000001
30
0
0
VERTEX
8
0
10
17.9324
20
13.906875000000001
30
0
0
VERTEX
8
0
10
50.907762500000004
20
46.8822375
30
0
42
0.19891236737965798
0
VERTEX
8
0
10
50.952400000000004
20
46.99
30
0
0
VERTEX
8
0
10
50.952400000000004
20
65.976875
30
0
0
VERTEX
8
0
10
67.41776250000001
20
82.4422375
30
0
42
0.19891236737965798
0
VERTEX
8
0
10
67.4624
20
82.55
30
0
0
VERTEX
8
0
10
67.4624
20
100.266875
30
0
0
VERTEX
8
0
10
85.19776250000001
20
118.0022375
30
0
42
0.19891236737965798
0
VERTEX
8
0
10
85.2424
20
118.11
30
0
0
VERTEX
8
0
10
85.2424
20
133.003765625
30
0
42
0.9572289051629038
0
VERTEX
8
0
10
84.96817187500001
20
133.708896875
30
0
0
VERTEX
8
0
10
84.92236875
20
133.68992500000002
30
0
42
0.6370260012064161
0
VERTEX
8
0
10
84.9376
20
133.003765625
30
0
0
VERTEX
8
0
10
84.9376
20
118.173125
30
0
0
VERTEX
8
0
10
67.20223750000001
20
100.4377625
30
0
42
0.19891236737965798
0
VERTEX
8
0
10
67.1576
20
100.33
30
0
0
VERTEX
8
0
10
67.1576
20
82.61312500000001
30
0
0
VERTEX
8
0
10
50.692237500000005
20
66.1477625
30
0
42
0.19891236737965798
0
VERTEX
8
0
10
50.647600000000004
20
66.04
30
0
0
VERTEX
8
0
10
50.647600000000004
20
47.053125
30
0
0
VERTEX
8
0
10
17.6722375
20
14.0777625
30
0
42
0.19891236737965798
0
VERTEX
8
0
10
17.6276
20
13.97
30
0
0
VERTEX
8
0
10
17.6276
20
-5.08
30
0
42
0.19891236737965798
0
VERTEX
8
0
10
17.6722375
20
-5.1877625
30
0
0
VERTEX
8
0
10
23.977600000000002
20
-11.493125000000001
30
0
0
VERTEX
8
0
10
23.977600000000002
20
-21.091875
30
0
0
VERTEX
8
0
10
23.36
20
-21.709475
30
0
0
VERTEX
8
0
10
23.36
20
-20.55
30
0
0
VERTEX
8
0
10
23.0124
20
-20.55
30
0
0
VERTEX
8
0
10
23.0124
20
-19.396234375000002
30
0
42
0.9572289051629038
0
VERTEX
8
0
10
22.738171875000003
20
-18.691103125
30
0
0
VERTEX
8
0
10
22.69236875
20
-18.710075
30
0
42
0.6370260012064161
0
VERTEX
8
0
10
22.7076
20
-19.396234375000002
30
0
0
VERTEX
8
0
10
22.7076
20
-20.55
30
0
0
VERTEX
8
0
10
22.36
20
-20.55
30
0
0
VERTEX
8
0
10
22.36
20
-24.3
30
0
0
VERTEX
8
0
10
23.36
20
-24.3
30
0
0
SEQEND
0
POLYLINE
66
1
8
1_copper
10
0.0
20
0.0
30
0.0
70
1
0
VERTEX
8
0
10
69.923940625
20
98.688271875
30
0
42
0.4662697542730613
0
VERTEX
8
0
10
70.2025875
20
99.1970625
30
0
0
VERTEX
8
0
10
70.863125
20
99.8576
30
0
0
VERTEX
8
0
10
73.13000000000001
20
99.8576
30
0
0
VERTEX
8
0
10
73.13000000000001
20
99.51
30
0
0
VERTEX
8
0
10
74.53
20
99.51
30
0
0
VERTEX
8
0
10
74.53
20
100.51
30
0
0
VERTEX
8
0
10
73.13000000000001
20
100.51
30
0
0
VERTEX
8
0
10
73.13000000000001
20
100.1624
30
0
0
VERTEX
8
0
10
70.8
20
100.1624
30
0
42
0.19891236737965798
0
VERTEX
8
0
10
70.6922375
20
100.1177625
30
0
0
VERTEX
8
0
10
69.98706250000001
20
99.4125875
30
0
0
VERTEX
8
0
10
69.971828125
20
99.418896875
30
0
0
VERTEX
8
0
10
69.923940625
20
99.431728125
30
0
0
VERTEX
8
0
10
69.8747875
20
99.43820000000001
30
0
0
VERTEX
8
0
10
69.8252125
20
99.43820000000001
30
0
0
VERTEX
8
0
10
69.776059375
20
99.431728125
30
0
0
VERTEX
8
0
10
69.728171875
20
99.418896875
30
0
0
VERTEX
8
0
10
69.68236875000001
20
99.39992500000001
30
0
0
VERTEX
8
0
10
69.63943125
20
99.37513750000001
30
0
0
VERTEX
8
0
10
69.6001
20
99.34495625000001
30
0
0
VERTEX
8
0
10
69.56504375
20
99.3099
30
0
0
VERTEX
8
0
10
69.5348625
20
99.27056875000001
30
0
0
VERTEX
8
0
10
69.510075
20
99.22763125
30
0
0
VERTEX
8
0
10
69.49110312500001
20
99.18182812500001
30
0
0
VERTEX
8
0
10
69.478271875
20
99.13394062500001
30
0
0
VERTEX
8
0
10
69.4718
20
99.0847875
30
0
0
VERTEX
8
0
10
69.4718
20
99.0352125
30
0
0
VERTEX
8
0
10
69.478271875
20
98.98605937500001
30
0
0
VERTEX
8
0
10
69.49110312500001
20
98.93817187500001
30
0
0
VERTEX
8
0
10
69.510075
20
98.89236875
30
0
0
VERTEX
8
0
10
69.5348625
20
98.84943125000001
30
0
0
VERTEX
8
0
10
69.56504375
20
98.8101
30
0
0
VERTEX
8
0
10
69.6001
20
98.77504375000001
30
0
0
VERTEX
8
0
10
69.63943125
20
98.74486250000001
30
0
0
VERTEX
8
0
10
69.68236875000001
20
98.72007500000001
30
0
0
VERTEX
8
0
10
69.728171875
20
98.701103125
30
0
0
VERTEX
8
0
10
69.776059375
20
98.688271875
30
0
0
VERTEX
8
0
10
69.8252125
20
98.68180000000001
30
0
0
VERTEX
8
0
10
69.8747875
20
98.68180000000001
30
0
0
SEQEND
0
POLYLINE
66
1
8
1_copper
10
0.0
20
0.0
30
0.0
70
1
0
VERTEX
8
0
10
25.473940625
20
-19.421728125
30
0
42
0.7331815214692624
0
VERTEX
8
0
10
25.552400000000002
20
-18.703765625000003
30
0
0
VERTEX
8
0
10
25.552400000000002
20
-17.55
30
0
0
VERTEX
8
0
10
25.900000000000002
20
-17.55
30
0
0
VERTEX
8
0
10
25.900000000000002
20
-13.8
30
0
0
VERTEX
8
0
10
24.900000000000002
20
-13.8
30
0
0
VERTEX
8
0
10
24.900000000000002
20
-17.55
30
0
0
VERTEX
8
0
10
25.247600000000002
20
-17.55
30
0
0
VERTEX
8
0
10
25.247600000000002
20
-18.703765625000003
30
0
0
VERTEX
8
0
10
25.232368750000003
20
-18.710075
30
0
0
VERTEX
8
0
10
25.189431250000002
20
-18.734862500000002
30
0
0
VERTEX
8
0
10
25.150100000000002
20
-18.76504375
30
0
0
VERTEX
8
0
10
25.11504375
20
-18.8001
30
0
0
VERTEX
8
0
10
25.0848625
20
-18.83943125
30
0
0
VERTEX
8
0
10
25.060075
20
-18.88236875
30
0
0
VERTEX
8
0
10
25.041103125000003
20
-18.928171875
30
0
0
VERTEX
8
0
10
25.028271875
20
-18.976059375000002
30
0
0
VERTEX
8
0
10
25.021800000000002
20
-19.025212500000002
30
0
0
VERTEX
8
0
10
25.021800000000002
20
-19.0747875
30
0
0
VERTEX
8
0
10
25.028271875
20
-19.123940625
30
0
0
VERTEX
8
0
10
25.041103125000003
20
-19.171828125
30
0
0
VERTEX
8
0
10
25.060075
20
-19.21763125
30
0
0
VERTEX
8
0
10
25.0848625
20
-19.26056875
30
0
0
VERTEX
8
0
10
25.11504375
20
-19.2999
30
0
0
VERTEX
8
0
10
25.150100000000002
20
-19.33495625
30
0
0
VERTEX
8
0
10
25.189431250000002
20
-19.3651375
30
0
0
VERTEX
8
0
10
25.232368750000003
20
-19.389925
30
0
0
VERTEX
8
0
10
25.278171875
20
-19.408896875
30
0
0
VERTEX
8
0
10
25.326059375
20
-19.421728125
30
0
0
VERTEX
8
0
10
25.3752125
20
-19.4282
30
0
0
VERTEX
8
0
10
25.4247875
20
-19.4282
30
0
0
SEQEND
0
POLYLINE
66
1
8
16_copper
10
0.0
20
0.0
30
0.0
70
1
0
VERTEX
8
0
10
25.900000000000002
20
-22.140525
30
0
0
VERTEX
8
0
10
26.7777625
20
-21.2627625
30
0
42
0.19891236737965798
0
VERTEX
8
0
10
26.822400000000002
20
-21.155
30
0
0
VERTEX
8
0
10
26.822400000000002
20
-11.43
30
0
42
0.19891236737965798
0
VERTEX
8
0
10
26.7777625
20
-11.3222375
30
0
0
VERTEX
8
0
10
20.4724
20
-5.016875000000001
30
0
0
VERTEX
8
0
10
20.4724
20
13.906875000000001
30
0
0
VERTEX
8
0
10
53.4477625
20
46.8822375
30
0
42
0.19891236737965798
0
VERTEX
8
0
10
53.4924
20
46.99
30
0
0
VERTEX
8
0
10
53.4924
20
65.976875
30
0
0
VERTEX
8
0
10
69.9577625
20
82.4422375
30
0
42
0.19891236737965798
0
VERTEX
8
0
10
70.00240000000001
20
82.55
30
0
0
VERTEX
8
0
10
70.00240000000001
20
98.71376562500001
30
0
42
0.9572289051629038
0
VERTEX
8
0
10
69.728171875
20
99.418896875
30
0
0
VERTEX
8
0
10
69.68236875000001
20
99.39992500000001
30
0
42
0.6370260012064161
0
VERTEX
8
0
10
69.69760000000001
20
98.71376562500001
30
0
0
VERTEX
8
0
10
69.69760000000001
20
82.61312500000001
30
0
0
VERTEX
8
0
10
53.232237500000004
20
66.1477625
30
0
42
0.19891236737965798
0
VERTEX
8
0
10
53.1876
20
66.04
30
0
0
VERTEX
8
0
10
53.1876
20
47.053125
30
0
0
VERTEX
8
0
10
20.2122375
20
14.0777625
30
0
42
0.19891236737965798
0
VERTEX
8
0
10
20.1676
20
13.97
30
0
0
VERTEX
8
0
10
20.1676
20
-5.08
30
0
42
0.19891236737965798
0
VERTEX
8
0
10
20.2122375
20
-5.1877625
30
0
0
VERTEX
8
0
10
26.5176
20
-11.493125000000001
30
0
0
VERTEX
8
0
10
26.5176
20
-21.091875
30
0
0
VERTEX
8
0
10
25.900000000000002
20
-21.709475
30
0
0
VERTEX
8
0
10
25.900000000000002
20
-20.55
30
0
0
VERTEX
8
0
10
25.552400000000002
20
-20.55
30
0
0
VERTEX
8
0
10
25.552400000000002
20
-19.396234375000002
30
0
42
0.9572289051629038
0
VERTEX
8
0
10
25.278171875
20
-18.691103125
30
0
0
VERTEX
8
0
10
25.232368750000003
20
-18.710075
30
0
42
0.6370260012064161
0
VERTEX
8
0
10
25.247600000000002
20
-19.396234375000002
30
0
0
VERTEX
8
0
10
25.247600000000002
20
-20.55
30
0
0
VERTEX
8
0
10
24.900000000000002
20
-20.55
30
0
0
VERTEX
8
0
10
24.900000000000002
20
-24.3
30
0
0
VERTEX
8
0
10
25.900000000000002
20
-24.3
30
0
0
SEQEND
0
CIRCLE
8
drills_NPTH
10
1.27
20
-19.05
30
0
40
2.15
0
CIRCLE
8
drills_NPTH
10
74.93
20
161.29000000000002
30
0
40
2.15
0
CIRCLE
8
drills_PTH
10
38.1
20
0
30
0
40
0.4
0
CIRCLE
8
drills_PTH
10
38.1
20
-2.54
30
0
40
0.4
0
CIRCLE
8
drills_PTH
10
52.07
20
34.29
30
0
40
0.4
0
CIRCLE
8
drills_PTH
10
52.07
20
31.75
30
0
40
0.4
0
CIRCLE
8
drills_PTH
10
67.31
20
68.58
30
0
40
0.4
0
CIRCLE
8
drills_PTH
10
67.31
20
66.04
30
0
40
0.4
0
CIRCLE
8
drills_PTH
10
81.28
20
102.87
30
0
40
0.4
0
CIRCLE
8
drills_PTH
10
81.28
20
100.33
30
0
40
0.4
0
CIRCLE
8
drills_PTH
10
95.25
20
137.16
30
0
40
0.4
0
CIRCLE
8
drills_PTH
10
95.25
20
134.62
30
0
40
0.4
0
CIRCLE
8
drills_PTH
10
109.22
20
171.45000000000002
30
0
40
0.4
0
CIRCLE
8
drills_PTH
10
109.22
20
168.91
30
0
40
0.4
0
CIRCLE
8
drills_via_1_16
10
111.76
20
173.99
30
0
40
0.17500000000000002
0
CIRCLE
8
drills_via_1_16
10
97.79
20
139.70000000000002
30
0
40
0.17500000000000002
0
CIRCLE
8
drills_via_1_16
10
83.82000000000001
20
105.41000000000001
30
0
40
0.17500000000000002
0
CIRCLE
8
drills_via_1_16
10
69.85000000000001
20
71.12
30
0
40
0.17500000000000002
0
CIRCLE
8
drills_via_1_16
10
54.61
20
36.83
30
0
40
0.17500000000000002
0
CIRCLE
8
drills_via_1_16
10
40.64
20
2.54
30
0
40
0.17500000000000002
0
CIRCLE
8
drills_via_1_16
10
15.24
20
-19.05
30
0
40
0.17500000000000002
0
CIRCLE
8
drills_via_1_16
10
16.51
20
-25.400000000000002
30
0
40
0.17500000000000002
0
CIRCLE
8
drills_via_1_16
10
34.29
20
-7.62
30
0
40
0.17500000000000002
0
CIRCLE
8
drills_via_1_16
10
43.18
20
26.67
30
0
40
0.17500000000000002
0
CIRCLE
8
drills_via_1_16
10
57.150000000000006
20
60.96
30
0
40
0.17500000000000002
0
CIRCLE
8
drills_via_1_16
10
71.12
20
93.98
30
0
40
0.17500000000000002
0
CIRCLE
8
drills_via_1_16
10
86.36
20
128.27
30
0
40
0.17500000000000002
0
CIRCLE
8
drills_via_1_16
10
100.33
20
162.56
30
0
40
0.17500000000000002
0
CIRCLE
8
drills_via_1_16
10
17.78
20
-19.05
30
0
40
0.17500000000000002
0
CIRCLE
8
drills_via_1_16
10
17.78
20
-12.700000000000001
30
0
40
0.17500000000000002
0
CIRCLE
8
drills_via_1_16
10
33.02
20
-12.700000000000001
30
0
40
0.17500000000000002
0
CIRCLE
8
drills_via_1_16
10
30.48
20
-12.700000000000001
30
0
40
0.17500000000000002
0
CIRCLE
8
drills_via_1_16
10
27.94
20
-12.700000000000001
30
0
40
0.17500000000000002
0
CIRCLE
8
drills_via_1_16
10
25.400000000000002
20
-12.700000000000001
30
0
40
0.17500000000000002
0
CIRCLE
8
drills_via_1_16
10
22.86
20
-12.700000000000001
30
0
40
0.17500000000000002
0
CIRCLE
8
drills_via_1_16
10
20.32
20
-12.700000000000001
30
0
40
0.17500000000000002
0
CIRCLE
8
drills_via_1_16
10
27.94
20
-3.81
30
0
40
0.17500000000000002
0
CIRCLE
8
drills_via_1_16
10
33.02
20
-19.05
30
0
40
0.17500000000000002
0
CIRCLE
8
drills_via_1_16
10
41.910000000000004
20
30.48
30
0
40
0.17500000000000002
0
CIRCLE
8
drills_via_1_16
10
30.48
20
-19.05
30
0
40
0.17500000000000002
0
CIRCLE
8
drills_via_1_16
10
55.88
20
64.77
30
0
40
0.17500000000000002
0
CIRCLE
8
drills_via_1_16
10
27.94
20
-19.05
30
0
40
0.17500000000000002
0
CIRCLE
8
drills_via_1_16
10
99.06
20
167.64000000000001
30
0
40
0.17500000000000002
0
CIRCLE
8
drills_via_1_16
10
20.32
20
-19.05
30
0
40
0.17500000000000002
0
CIRCLE
8
drills_via_1_16
10
85.09
20
133.35
30
0
40
0.17500000000000002
0
CIRCLE
8
drills_via_1_16
10
22.86
20
-19.05
30
0
40
0.17500000000000002
0
CIRCLE
8
drills_via_1_16
10
69.85000000000001
20
99.06
30
0
40
0.17500000000000002
0
CIRCLE
8
drills_via_1_16
10
25.400000000000002
20
-19.05
30
0
40
0.17500000000000002
0
ENDSEC
0
EOF